<?xml version="1.0" encoding="UTF-8"?><svg xmlns="http://www.w3.org/2000/svg" xmlns:xlink="http://www.w3.org/1999/xlink" viewBox="0 0 1114.78 1114.78"><defs><style>.cls-1{fill:#fff;}.cls-2{fill:#0b723e;}.cls-3{isolation:isolate;}.cls-4{fill:url(#radial-gradient);mix-blend-mode:multiply;opacity:.3;}.cls-5{clip-path:url(#clippath);}.cls-6{fill:#df1b3f;}.cls-7{fill:none;}</style><clipPath id="clippath"><circle class="cls-7" cx="557.39" cy="557.39" r="557.39"/></clipPath><radialGradient id="radial-gradient" cx="557.39" cy="557.39" fx="557.39" fy="557.39" r="557.39" gradientUnits="userSpaceOnUse"><stop offset="0" stop-color="#fff"/><stop offset=".36" stop-color="#fdfdfd"/><stop offset=".48" stop-color="#f6f6f6"/><stop offset=".58" stop-color="#eaeaea"/><stop offset=".65" stop-color="#d9d9d9"/><stop offset=".71" stop-color="#c3c3c3"/><stop offset=".77" stop-color="#a8a8a8"/><stop offset=".82" stop-color="#878787"/><stop offset=".87" stop-color="#626262"/><stop offset=".91" stop-color="#373737"/><stop offset=".95" stop-color="#090909"/><stop offset=".96" stop-color="#000"/></radialGradient></defs><g class="cls-3"><g id="Layer_2"><g id="Layer_1-2"><g id="Algeria"><g class="cls-5"><g><rect class="cls-2" x="-279.02" width="836.41" height="1114.78"/><rect class="cls-1" x="557.39" width="836.41" height="1114.78"/><path class="cls-6" d="m792.73,705.86c-49.28,77.96-136.29,129.77-235.35,129.77-153.67,0-278.25-124.58-278.25-278.25s124.58-278.18,278.25-278.18c99.13,0,186.2,51.81,235.49,129.91-41.08-46.55-101.16-75.92-168.11-75.92-123.88,0-224.27,100.39-224.27,224.2s100.39,224.27,224.27,224.27c66.88,0,126.89-29.3,167.97-75.78Z"/><polygon class="cls-6" points="713.32 424.47 713.1 526.45 810.03 558.16 712.97 589.47 712.76 691.45 652.99 608.82 555.93 640.13 616.05 557.76 556.28 475.13 653.2 506.84 713.32 424.47"/></g><circle class="cls-4" cx="557.39" cy="557.39" r="557.39"/></g></g></g></g></g></svg>