<?xml version="1.0" encoding="UTF-8"?><svg xmlns="http://www.w3.org/2000/svg" xmlns:xlink="http://www.w3.org/1999/xlink" viewBox="0 0 1114.78 1114.78"><defs><style>.cls-1{isolation:isolate;}.cls-2{fill:url(#radial-gradient);mix-blend-mode:multiply;opacity:.3;}.cls-3{clip-path:url(#clippath);}.cls-4{fill:none;}.cls-5{fill:#ffd80b;}.cls-6{fill:#0b0b0b;}.cls-7{fill:#d9143a;}</style><clipPath id="clippath"><circle class="cls-4" cx="557.39" cy="557.39" r="557.39"/></clipPath><radialGradient id="radial-gradient" cx="557.39" cy="557.39" fx="557.39" fy="557.39" r="557.39" gradientUnits="userSpaceOnUse"><stop offset="0" stop-color="#fff"/><stop offset=".36" stop-color="#fdfdfd"/><stop offset=".48" stop-color="#f6f6f6"/><stop offset=".58" stop-color="#eaeaea"/><stop offset=".65" stop-color="#d9d9d9"/><stop offset=".71" stop-color="#c3c3c3"/><stop offset=".77" stop-color="#a8a8a8"/><stop offset=".82" stop-color="#878787"/><stop offset=".87" stop-color="#626262"/><stop offset=".91" stop-color="#373737"/><stop offset=".95" stop-color="#090909"/><stop offset=".96" stop-color="#000"/></radialGradient></defs><g class="cls-1"><g id="Layer_2"><g id="Layer_1-2"><g id="Angola"><g class="cls-3"><g><rect class="cls-7" x="-279.02" width="1672.83" height="557.39"/><rect class="cls-6" x="-279.02" y="557.39" width="1672.83" height="557.39"/><polygon class="cls-5" points="536.38 317.16 557.6 382.49 626.3 382.49 570.72 422.87 591.95 488.2 536.38 447.82 480.8 488.2 502.03 422.87 446.45 382.49 515.15 382.49 536.38 317.16"/><g><path class="cls-5" d="m599.21,764.93c-1.3.55-2.62,1.01-3.92,1.54,7.68-3.1,15.25-6.43,22.59-10.19-14.09-8.9-28.32-17.95-42.41-27.06-26.29,10.03-54.89,15.49-84.69,15.49-56.79,0-109.01-19.84-150.03-52.93l-25.8,33.02c10.75,8.66,22.19,16.49,34.16,23.51-.07-.04-.14-.08-.21-.12h-.07s-10.16,25.88-10.16,25.88l45.81,20.84,13.42-23.94h0c15.21,5.34,31.01,9.39,47.27,12.06l-.21,27.73,50.23,3.04,3.95-27.16-.03-.06c-.63.02-1.25,0-1.88.01,17.2-.39,34.02-2.32,50.33-5.69l9.76,26.02,47.99-15.17-6.05-26.77-.05-.05Z"/><path class="cls-5" d="m767.2,556.13l27.79.69,3.91-50.17-27.08-4.42-.07.03c0,.33-.01.66,0,.99-.18-20.62-2.65-40.68-7.07-60.03.06.28.15.56.21.84l.05.05,25.85-10.22-16-47.71-26.66,6.51-.05.05c.65,1.47,1.21,2.97,1.84,4.44-8.06-19.18-18.13-37.3-30.04-54.04.65.91,1.33,1.8,1.97,2.72l.07.03,20.14-19.16-32.71-38.24-22.28,16.03-.03.07c2.24,2.16-24.24-22.03-41.82-33.64l11.5-25.31-44.66-23.21-14.65,23.21c-15-6.24-30.71-11.08-46.97-14.58l-8.83,41.01c107.61,23.34,188.16,119.11,188.16,233.66,0,75.08-34.56,142.03-88.68,185.85,11.29,8.69,22.71,17.46,34,26.22,7.15,5.54,14.23,11.01,21.24,16.4l11.64-9.95-15.98-22.29h-.07c-.84.84-1.61,1.68-2.45,2.38,14.39-14.41,27.16-30.41,38.19-47.65-.72,1.12-1.38,2.27-2.12,3.37v.07l25.31,11.5,23.2-44.66-23.2-14.65h-.07s-.04.08-.05.12c7.39-17.92,12.94-36.77,16.5-56.31h0Z"/></g><path class="cls-5" d="m743.22,797.29l-16.05,19.28c-85.46-53.7-219.57-135.44-292.97-194.05-14.65-11.71-24.12-28.81-25.24-47.53-1.05-17.81,3.36-41.57,21.1-71.58,0,0-1.68,27.34,32.6,57.14,23.27,20.33,185.92,145.68,289.75,225.81l-4.63,5.54-266.26-202.47-4.28,5.54,265.98,202.33Z"/><path class="cls-5" d="m839.26,853.94c-1.96-1.96-35.54-27.9-81.95-63.73l-4.56,5.4-4.56,5.47-15.77,18.86c42.48,26.78,71.72,45.92,73.19,50.83,4.63,15.07,28.18,34.91,39.61,16.4,11.43-18.58.56-26.99-5.96-33.23Zm-57.07-24.12c-2.73,0-4.91-2.17-4.91-4.84s2.17-4.91,4.91-4.91,4.84,2.17,4.84,4.91-2.17,4.84-4.84,4.84Zm16.48,12.69c-2.73,0-4.91-2.17-4.91-4.91s2.17-4.84,4.91-4.84,4.84,2.17,4.84,4.84-2.17,4.91-4.84,4.91Zm15.91,11.71c-2.73,0-4.91-2.24-4.91-4.91s2.17-4.91,4.91-4.91,4.84,2.17,4.84,4.91-2.17,4.91-4.84,4.91Z"/><polygon class="cls-6" points="547.31 231.05 547.31 230.98 553.54 230.98 547.31 231.05"/></g><circle class="cls-2" cx="557.39" cy="557.39" r="557.39"/></g></g></g></g></g></svg>