<?xml version="1.0" encoding="UTF-8"?><svg xmlns="http://www.w3.org/2000/svg" xmlns:xlink="http://www.w3.org/1999/xlink" viewBox="0 0 1114.78 1114.78"><defs><style>.cls-1{fill:#fff;}.cls-2{fill:#4db635;}.cls-3{isolation:isolate;}.cls-4{fill:url(#radial-gradient);mix-blend-mode:multiply;opacity:.3;}.cls-5{clip-path:url(#clippath);}.cls-6{fill:none;}.cls-7{fill:#cd1c39;}</style><clipPath id="clippath"><circle class="cls-6" cx="557.39" cy="557.39" r="557.39"/></clipPath><radialGradient id="radial-gradient" cx="557.39" cy="557.39" fx="557.39" fy="557.39" r="557.39" gradientUnits="userSpaceOnUse"><stop offset="0" stop-color="#fff"/><stop offset=".36" stop-color="#fdfdfd"/><stop offset=".48" stop-color="#f6f6f6"/><stop offset=".58" stop-color="#eaeaea"/><stop offset=".65" stop-color="#d9d9d9"/><stop offset=".71" stop-color="#c3c3c3"/><stop offset=".77" stop-color="#a8a8a8"/><stop offset=".82" stop-color="#878787"/><stop offset=".87" stop-color="#626262"/><stop offset=".91" stop-color="#373737"/><stop offset=".95" stop-color="#090909"/><stop offset=".96" stop-color="#000"/></radialGradient></defs><g class="cls-3"><g id="Layer_2"><g id="Layer_1-2"><g id="Burundi"><g class="cls-5"><g><polygon class="cls-1" points="1486.39 1026.85 1486.39 1114.78 1339.94 1114.78 558.74 646.08 412.29 558.2 -371.6 87.88 -371.6 0 -225.15 0 558.74 470.32 705.19 558.2 1486.39 1026.85"/><polygon class="cls-1" points="1486.39 0 1486.39 89.44 705.19 558.2 558.74 646.08 -222.45 1114.78 -368.9 1114.78 -371.6 1110.26 -371.6 1028.51 412.29 558.2 558.74 470.32 1342.59 0 1486.39 0"/><polygon class="cls-7" points="1342.59 0 558.74 470.32 -225.15 0 1342.59 0"/><polygon class="cls-7" points="1339.94 1114.78 -222.45 1114.78 558.74 646.08 1339.94 1114.78"/><polygon class="cls-2" points="1486.39 89.44 1486.39 1026.85 705.19 558.2 1486.39 89.44"/><polygon class="cls-1" points="1486.39 89.44 705.19 558.2 1486.39 1026.85 1486.39 1114.78 1339.94 1114.78 558.74 646.08 -222.45 1114.78 -371.6 1114.78 -371.6 1028.51 412.29 558.2 -371.6 87.88 -371.6 0 -225.15 0 558.74 470.32 1342.59 0 1486.39 0 1486.39 89.44"/><polygon class="cls-2" points="412.29 558.2 -371.6 1028.51 -371.6 87.88 412.29 558.2"/><circle class="cls-1" cx="557.39" cy="557.39" r="315.45"/><g><g><polygon class="cls-2" points="536.12 430.71 494.09 430.71 515.1 394.01 494.09 357.32 536.12 357.32 557.39 320.18 578.67 357.32 620.7 357.32 599.68 394.01 620.7 430.71 578.67 430.71 557.39 467.85 536.12 430.71"/><polygon class="cls-7" points="592.2 394.01 609.49 363.81 574.9 363.81 557.39 333.25 539.88 363.81 505.29 363.81 522.59 394.01 505.29 424.21 539.88 424.21 557.39 454.78 574.9 424.21 609.49 424.21 592.2 394.01"/></g><g><g><polygon class="cls-2" points="394.7 675.99 352.66 675.99 373.68 639.29 352.66 602.6 394.7 602.6 415.97 565.46 437.25 602.6 479.28 602.6 458.26 639.29 479.28 675.99 437.25 675.99 415.97 713.13 394.7 675.99"/><polygon class="cls-7" points="450.78 639.29 468.07 609.09 433.48 609.09 415.97 578.52 398.46 609.09 363.87 609.09 381.17 639.29 363.87 669.49 398.46 669.49 415.97 700.06 433.48 669.49 468.07 669.49 450.78 639.29"/></g><g><polygon class="cls-2" points="677.54 675.99 635.51 675.99 656.52 639.29 635.51 602.6 677.54 602.6 698.81 565.46 720.09 602.6 762.12 602.6 741.1 639.29 762.12 675.99 720.09 675.99 698.81 713.13 677.54 675.99"/><polygon class="cls-7" points="733.62 639.29 750.91 609.09 716.32 609.09 698.81 578.52 681.3 609.09 646.71 609.09 664.01 639.29 646.71 669.49 681.3 669.49 698.81 700.06 716.32 669.49 750.91 669.49 733.62 639.29"/></g></g></g></g><circle class="cls-4" cx="557.39" cy="557.39" r="557.39"/></g></g></g></g></g></svg>