<?xml version="1.0" encoding="UTF-8"?><svg xmlns="http://www.w3.org/2000/svg" xmlns:xlink="http://www.w3.org/1999/xlink" viewBox="0 0 1114.78 1114.78"><defs><style>.cls-1{fill:#cf2027;}.cls-2{fill:#003893;}.cls-3{fill:#fff;}.cls-4{isolation:isolate;}.cls-5{fill:url(#radial-gradient);mix-blend-mode:multiply;opacity:.3;}.cls-6{clip-path:url(#clippath);}.cls-7{fill:none;}.cls-8{fill:#f7d116;}</style><clipPath id="clippath"><circle class="cls-7" cx="557.39" cy="557.39" r="557.39"/></clipPath><radialGradient id="radial-gradient" cx="557.39" cy="557.39" fx="557.39" fy="557.39" r="557.39" gradientUnits="userSpaceOnUse"><stop offset="0" stop-color="#fff"/><stop offset=".36" stop-color="#fdfdfd"/><stop offset=".48" stop-color="#f6f6f6"/><stop offset=".58" stop-color="#eaeaea"/><stop offset=".65" stop-color="#d9d9d9"/><stop offset=".71" stop-color="#c3c3c3"/><stop offset=".77" stop-color="#a8a8a8"/><stop offset=".82" stop-color="#878787"/><stop offset=".87" stop-color="#626262"/><stop offset=".91" stop-color="#373737"/><stop offset=".95" stop-color="#090909"/><stop offset=".96" stop-color="#000"/></radialGradient></defs><g class="cls-4"><g id="Layer_2"><g id="Layer_1-2"><g id="Cape_Verde"><g class="cls-6"><rect class="cls-2" x="-153.53" width="1895.82" height="557.39"/><rect class="cls-3" x="-153.53" y="557.39" width="1895.82" height="93.84"/><rect class="cls-1" x="-153.53" y="651.24" width="1895.82" height="93.84"/><rect class="cls-3" x="-153.53" y="745.08" width="1895.82" height="93.84"/><rect class="cls-2" x="-153.53" y="838.93" width="1895.82" height="275.86"/><polygon class="cls-8" points="557.39 361.71 570.06 400.7 611.05 400.7 577.89 424.79 590.55 463.78 557.39 439.69 524.23 463.78 536.9 424.79 503.73 400.7 544.72 400.7 557.39 361.71"/><polygon class="cls-8" points="393.59 414.44 406.26 453.43 447.25 453.43 414.09 477.52 426.76 516.51 393.59 492.42 360.43 516.51 373.1 477.52 339.94 453.43 380.93 453.43 393.59 414.44"/><polygon class="cls-8" points="292.5 553.28 305.17 592.27 346.16 592.27 313 616.36 325.67 655.35 292.5 631.25 259.34 655.35 272.01 616.36 238.84 592.27 279.84 592.27 292.5 553.28"/><polygon class="cls-8" points="292.5 726.58 305.17 765.57 346.16 765.57 313 789.66 325.67 828.65 292.5 804.55 259.34 828.65 272.01 789.66 238.84 765.57 279.84 765.57 292.5 726.58"/><polygon class="cls-8" points="392.95 865.94 405.62 904.93 446.61 904.93 413.45 929.02 426.12 968.01 392.95 943.91 359.79 968.01 372.46 929.02 339.29 904.93 380.29 904.93 392.95 865.94"/><polygon class="cls-8" points="721.19 414.44 708.52 453.43 667.53 453.43 700.69 477.52 688.02 516.51 721.19 492.42 754.35 516.51 741.68 477.52 774.85 453.43 733.86 453.43 721.19 414.44"/><polygon class="cls-8" points="822.28 553.28 809.61 592.27 768.62 592.27 801.78 616.36 789.12 655.35 822.28 631.25 855.44 655.35 842.78 616.36 875.94 592.27 834.95 592.27 822.28 553.28"/><polygon class="cls-8" points="822.28 726.58 809.61 765.57 768.62 765.57 801.78 789.66 789.12 828.65 822.28 804.55 855.44 828.65 842.78 789.66 875.94 765.57 834.95 765.57 822.28 726.58"/><polygon class="cls-8" points="721.83 865.94 709.16 904.93 668.17 904.93 701.33 929.02 688.67 968.01 721.83 943.91 754.99 968.01 742.33 929.02 775.49 904.93 734.5 904.93 721.83 865.94"/><polygon class="cls-8" points="557.39 918.94 570.06 957.92 611.05 957.92 577.89 982.02 590.55 1021 557.39 996.91 524.23 1021 536.9 982.02 503.73 957.92 544.72 957.92 557.39 918.94"/><circle class="cls-5" cx="557.39" cy="557.39" r="557.39"/></g></g></g></g></g></svg>