<?xml version="1.0" encoding="UTF-8"?><svg xmlns="http://www.w3.org/2000/svg" xmlns:xlink="http://www.w3.org/1999/xlink" viewBox="0 0 1114.78 1114.78"><defs><style>.cls-1{fill:#fff;}.cls-2{isolation:isolate;}.cls-3{fill:#009639;}.cls-4{fill:#ef3340;}.cls-5{fill:url(#radial-gradient);mix-blend-mode:multiply;opacity:.3;}.cls-6{fill:#ffd100;}.cls-7{clip-path:url(#clippath);}.cls-8{fill:none;}.cls-9{fill:#003da5;}</style><clipPath id="clippath"><circle class="cls-8" cx="557.39" cy="557.39" r="557.39"/></clipPath><radialGradient id="radial-gradient" cx="557.39" cy="557.39" fx="557.39" fy="557.39" r="557.39" gradientUnits="userSpaceOnUse"><stop offset="0" stop-color="#fff"/><stop offset=".36" stop-color="#fdfdfd"/><stop offset=".48" stop-color="#f6f6f6"/><stop offset=".58" stop-color="#eaeaea"/><stop offset=".65" stop-color="#d9d9d9"/><stop offset=".71" stop-color="#c3c3c3"/><stop offset=".77" stop-color="#a8a8a8"/><stop offset=".82" stop-color="#878787"/><stop offset=".87" stop-color="#626262"/><stop offset=".91" stop-color="#373737"/><stop offset=".95" stop-color="#090909"/><stop offset=".96" stop-color="#000"/></radialGradient></defs><g class="cls-2"><g id="Layer_2"><g id="Layer_1-2"><g id="Comoros"><g class="cls-7"><g><rect class="cls-6" width="1860.15" height="278.7"/><rect class="cls-1" y="278.7" width="1860.15" height="278.7"/><rect class="cls-4" y="557.39" width="1860.15" height="278.7"/><rect class="cls-9" y="836.09" width="1860.15" height="278.7"/><polygon class="cls-3" points="0 0 930.07 557.39 0 1114.78 0 0"/><polygon class="cls-1" points="388.16 333.61 400.26 370.86 439.44 370.86 407.74 393.89 419.85 431.14 388.16 408.12 356.47 431.14 368.57 393.89 336.88 370.86 376.05 370.86 388.16 333.61"/><polygon class="cls-1" points="388.16 450.22 400.26 487.48 439.44 487.48 407.74 510.5 419.85 547.76 388.16 524.73 356.47 547.76 368.57 510.5 336.88 487.48 376.05 487.48 388.16 450.22"/><polygon class="cls-1" points="388.16 566.84 400.26 604.09 439.44 604.09 407.74 627.12 419.85 664.37 388.16 641.35 356.47 664.37 368.57 627.12 336.88 604.09 376.05 604.09 388.16 566.84"/><polygon class="cls-1" points="388.16 683.45 400.26 720.71 439.44 720.71 407.74 743.73 419.85 780.99 388.16 757.96 356.47 780.99 368.57 743.73 336.88 720.71 376.05 720.71 388.16 683.45"/><path class="cls-1" d="m390.6,813.41c-22.55,6.33-46.36,9.65-70.92,9.65-146.35,0-265-118.66-265-265s118.66-265,265-265c24.56,0,48.36,3.32,70.92,9.65-128.18,14.53-227.73,123.29-227.73,255.35s99.55,240.82,227.73,255.35Z"/></g><circle class="cls-5" cx="557.39" cy="557.39" r="557.39"/></g></g></g></g></g></svg>