<?xml version="1.0" encoding="UTF-8"?><svg xmlns="http://www.w3.org/2000/svg" xmlns:xlink="http://www.w3.org/1999/xlink" viewBox="0 0 1114.78 1114.78"><defs><style>.cls-1{isolation:isolate;}.cls-2{fill:#ffe323;}.cls-3{fill:url(#radial-gradient);mix-blend-mode:multiply;opacity:.3;}.cls-4{fill:#db1b2c;}.cls-5{fill:#0b8bff;}.cls-6{clip-path:url(#clippath);}.cls-7{fill:none;}</style><clipPath id="clippath"><circle class="cls-7" cx="557.39" cy="557.39" r="557.39"/></clipPath><radialGradient id="radial-gradient" cx="557.39" cy="557.39" fx="557.39" fy="557.39" r="557.39" gradientUnits="userSpaceOnUse"><stop offset="0" stop-color="#fff"/><stop offset=".36" stop-color="#fdfdfd"/><stop offset=".48" stop-color="#f6f6f6"/><stop offset=".58" stop-color="#eaeaea"/><stop offset=".65" stop-color="#d9d9d9"/><stop offset=".71" stop-color="#c3c3c3"/><stop offset=".77" stop-color="#a8a8a8"/><stop offset=".82" stop-color="#878787"/><stop offset=".87" stop-color="#626262"/><stop offset=".91" stop-color="#373737"/><stop offset=".95" stop-color="#090909"/><stop offset=".96" stop-color="#000"/></radialGradient></defs><g class="cls-1"><g id="Layer_2"><g id="Layer_1-2"><g id="Democratic_Republic_of_the_Congo"><g class="cls-6"><g><polygon class="cls-5" points="1389.68 0 0 833.53 0 0 1389.68 0"/><polygon class="cls-5" points="1486.36 280.32 1486.36 1114.78 95.12 1114.78 1486.36 280.32"/><polygon class="cls-2" points="1486.36 0 1486.36 .12 0 891.65 0 833.53 1389.68 0 1486.36 0"/><polygon class="cls-2" points="1486.36 222.2 1486.36 280.32 95.12 1114.78 0 1114.78 0 1113.72 1486.36 222.2"/><polygon class="cls-4" points="1486.36 .12 1486.36 222.2 0 1113.72 0 891.65 1486.36 .12"/><polygon class="cls-2" points="269.46 64.74 320.63 222.23 486.22 222.23 352.26 319.56 403.43 477.05 269.46 379.71 135.49 477.05 186.66 319.56 52.7 222.23 218.29 222.23 269.46 64.74"/></g><circle class="cls-3" cx="557.39" cy="557.39" r="557.39"/></g></g></g></g></g></svg>