<?xml version="1.0" encoding="UTF-8"?><svg xmlns="http://www.w3.org/2000/svg" xmlns:xlink="http://www.w3.org/1999/xlink" viewBox="0 0 1114.78 1114.78"><defs><style>.cls-1{fill:#fff;}.cls-2{isolation:isolate;}.cls-3{fill:#ce1126;}.cls-4{fill:url(#radial-gradient);mix-blend-mode:multiply;opacity:.3;}.cls-5{fill:#c09300;fill-rule:evenodd;}.cls-6{clip-path:url(#clippath);}.cls-7{fill:none;}</style><clipPath id="clippath"><circle class="cls-7" cx="557.39" cy="557.39" r="557.39"/></clipPath><radialGradient id="radial-gradient" cx="557.39" cy="557.39" fx="557.39" fy="557.39" r="557.39" gradientUnits="userSpaceOnUse"><stop offset="0" stop-color="#fff"/><stop offset=".36" stop-color="#fdfdfd"/><stop offset=".48" stop-color="#f6f6f6"/><stop offset=".58" stop-color="#eaeaea"/><stop offset=".65" stop-color="#d9d9d9"/><stop offset=".71" stop-color="#c3c3c3"/><stop offset=".77" stop-color="#a8a8a8"/><stop offset=".82" stop-color="#878787"/><stop offset=".87" stop-color="#626262"/><stop offset=".91" stop-color="#373737"/><stop offset=".95" stop-color="#090909"/><stop offset=".96" stop-color="#000"/></radialGradient></defs><g class="cls-2"><g id="Layer_2"><g id="Layer_1-2"><g id="Egypt"><g class="cls-6"><g><rect class="cls-1" x="-278.7" y="371.59" width="1672.17" height="371.59"/><rect x="-278.7" y="743.19" width="1672.17" height="371.59"/><path class="cls-5" d="m678.26,465.4c-.45-11-3.97-18.4-10.47-22-12.81-7.09-33.22,3.02-41.45,7.73-10.84,6.94-22.98,10.41-36.3,10.4-4.97-8.65-9.33-26.05-8.64-41.5.81-20.09-2.86-28.15-6.09-31.37-3.88-3.88-16.01-7.3-24.27-7.76-1.86-.09-3.2.37-4.06,1.38-.46.54-.69,1.13-.8,1.67-5.96-1.42-15.24-2.93-19.72.06-2.95,1.97-3.93,8.32-3.65,11.33.14,1.54.61,2.46,1.42,2.8.35.15,1.07.3,1.89-.36,1.87-1.5,3.68-2.1,5.54-1.82,2.63.39,5.44,2.65,8.12,6.54,2.8,4.05,3.07,16.62-1.83,32.83-2.99,9.94-9.24,19.98-13.6,26.22-13.17-.07-25.18-3.55-35.93-10.44-8.18-4.67-28.59-14.78-41.4-7.7-6.5,3.6-10.03,11-10.48,22l-9.06,214.54c-.02.48.25.92.68,1.12.43.2.94.13,1.29-.19l66.96-60.73-13.82,49.04c-3.16-.87-5.82-1.69-7.82-2.33-2.12-.49-4.42.14-6.24,1.44-3.28-.03-6.23,1.42-8.26,4.14-2.5,3.35-3.17,7.93-1.82,11.5-.28.76-.51,1.6-.65,2.54-3.74.33-6.11,3.37-7.92,5.69-1.62,2.08-2.59,3.18-3.64,3.34-.4-.08-.84-.12-1.32-.12-1.11,0-2.05.83-2.19,1.93-.14,1.1.56,2.14,1.63,2.42.44.11.86.18,1.26.21.4.26.69,1.01,1.2,3.12.7,2.89,1.72,7.12,6.29,9.34.07,5.51.88,10.88,10.77,12.66,19.76,5.62,53.84,8.85,93.52,8.85s73.78-3.23,93.79-8.85c9.64-1.79,10.44-7.15,10.5-12.66,4.57-2.22,5.59-6.45,6.29-9.34.51-2.11.79-2.86,1.2-3.12.4-.03.82-.1,1.26-.21,1.07-.28,1.77-1.32,1.63-2.42-.14-1.1-1.08-1.93-2.19-1.93-.48,0-.92.04-1.32.12-1.05-.16-2.02-1.27-3.64-3.34-1.81-2.32-4.18-5.36-7.91-5.69-.14-.94-.37-1.78-.65-2.55,1.35-3.57.68-8.15-1.82-11.49-2.03-2.72-4.97-4.15-8.25-4.14-1.84-1.29-4.16-1.91-6.34-1.41-1.96.64-4.6,1.44-7.73,2.31l-14.14-50.16,5.28,4.28,62,57.56c.22.21.51.31.8.31.17,0,.34-.03.5-.11.43-.2.7-.64.68-1.12l-9.06-214.54Zm-123.51,217.36c-.88-1.73-2.72-3.75-6.41-3.92-1.32-1.77-3.43-2.96-5.74-2.96h-.02c-2.89.37-6.04.51-9.29.52l1.56-7.12,4.57,4.57,7.17-5.29,6.74-48.23-2.82,47.99,6.88,8.76,6.88-8.76-2.82-48.01,6.74,48.24,7.16,5.29,4.56-4.56,1.56,7.11c-3.21,0-6.31-.16-9.15-.53-2.29,0-4.44,1.19-5.79,2.96-3.76.13-5.62,2.18-6.51,3.93-.35.68-.58,1.44-.75,2.22-.6,0-1.18,0-1.78,0-.66-.03-1.33-.05-2-.08-.17-.75-.4-1.48-.74-2.15Z"/><rect class="cls-3" x="-278.7" y="0" width="1672.17" height="371.59"/></g><circle class="cls-4" cx="557.39" cy="557.39" r="557.39"/></g></g></g></g></g></svg>