<?xml version="1.0" encoding="UTF-8"?><svg xmlns="http://www.w3.org/2000/svg" xmlns:xlink="http://www.w3.org/1999/xlink" viewBox="0 0 1114.78 1114.78"><defs><style>.cls-1{fill:#ddd;}.cls-2{fill:#a36629;}.cls-3{fill:#fff;}.cls-4{isolation:isolate;}.cls-5{fill:#3e9a00;}.cls-6{fill:url(#radial-gradient);mix-blend-mode:multiply;opacity:.3;}.cls-7{fill:#0073ce;}.cls-8{clip-path:url(#clippath);}.cls-9{fill:none;}.cls-10{fill:#090;}.cls-11{fill:#e32118;}.cls-12{fill:#ff0;}</style><clipPath id="clippath"><circle class="cls-9" cx="557.39" cy="557.39" r="557.39"/></clipPath><radialGradient id="radial-gradient" cx="557.39" cy="557.39" fx="557.39" fy="557.39" r="557.39" gradientUnits="userSpaceOnUse"><stop offset="0" stop-color="#fff"/><stop offset=".36" stop-color="#fdfdfd"/><stop offset=".48" stop-color="#f6f6f6"/><stop offset=".58" stop-color="#eaeaea"/><stop offset=".65" stop-color="#d9d9d9"/><stop offset=".71" stop-color="#c3c3c3"/><stop offset=".77" stop-color="#a8a8a8"/><stop offset=".82" stop-color="#878787"/><stop offset=".87" stop-color="#626262"/><stop offset=".91" stop-color="#373737"/><stop offset=".95" stop-color="#090909"/><stop offset=".96" stop-color="#000"/></radialGradient></defs><g class="cls-4"><g id="Layer_2"><g id="Layer_1-2"><g id="Equatorial_Guinea"><g class="cls-8"><g><rect class="cls-11" x="-278.69" y="743.22" width="1672.16" height="371.55"/><rect class="cls-3" x="-278.69" y="371.61" width="1672.16" height="371.61"/><rect class="cls-5" x="-278.69" width="1672.16" height="371.61"/><path class="cls-7" d="m-278.67.01v1114.77L139.37,557.4-278.67.01Z"/><path class="cls-1" d="m646.12,444.25h-177.9l-1.12,1.12c0,1.18.47,118.35.47,182.63,0,13.65,3.15,23.38,9.64,29.75,10.18,9.99,26.44,9.67,42.15,9.37,17.47-.34,32.58-.63,36.74,12.77l2.12.03c4.63-13.73,21.04-13.21,38.4-12.65,15.66.49,31.83,1.01,41.68-8.52,6.01-5.82,8.93-14.66,8.93-27.03v-186.35l-1.12-1.12Z"/><path class="cls-2" d="m581.2,522.3l.04-.39-5.58-4.65-.11-.09-.13.06c-.06.03-5.3,2.42-12.37,9.06.33-3.78.68-7.63,1.09-11.61l-.23-.26h-8.36l-.23.23-.17,12.09c-1.55-2.02-6.12-7.51-11.15-9.06l-.3.19-.92,7.43-.02.16.14.08c7.06,3.74,10.06,22.81,7.83,49.77-2.16,26.13-8.74,53.51-16.75,69.76-.31.61-.06,3.03,1.45,4.58,1.13,1.16,3.31,2.17,7.31.32.79,1.54,2.19,3.55,4.35,3.95.26.05.52.07.79.07,1.82,0,3.83-1.14,5.99-3.31.68,1.19,2.24,3.36,4.74,3.77.27.04.55.07.83.07,1.96,0,4.06-1.17,6.24-3.38.3.04.62.1.89.1,1.89,0,3.05-.85,3.41-1.15.74.3,4.13,1.57,5.99.25.89-.63,1.28-1.75,1.16-3.32-.26-5.42-2.34-11.74-4.75-19.06-1.89-5.73-4.02-12.22-5.47-19.06-1.87-9.7-2.22-19.6-2.54-28.33-.07-2.09-.15-4.1-.24-6.01l-.19-2.66c-1.75-24.54-2.81-39.35,17.25-49.6Z"/><path class="cls-10" d="m626.42,501.03c.84-3.9.26-6.85-1.74-8.78-2.46-2.37-6.96-2.97-12.42-1.64,1.69-2.79,1.99-5.48.78-7.3-1.35-2.02-4.37-2.69-8.52-1.9-.6-4.65-4.12-6.78-7.38-6.83-.03,0-.06,0-.1,0-2.73,0-5.82,1.56-6.39,5.02-4.81,0-5.07.07-7.61,3.03-1.91-5.46-4.5-6.75-10.98-7.64.89-8.73-6.47-14.87-14.17-15.8-5.73-.7-9.78,1.65-10.43,5.98-4.97-.77-7.92-.35-9.32,1.33-1.19,1.42-1.22,3.74-.09,7.07-2.25.05-3.87.68-4.69,1.82-.63.88-.77,2.02-.41,3.32-8.2.94-10.57,2.46-10.16,10.21-.38.04-.78.07-1.17.11-2.4.2-4.87.41-5.87,2.08-.7,1.18-.55,2.93.48,5.34-3.63,1.69-5.99,3.24-6.58,5.66-.51,2.06.4,4.61,2.76,7.78-2.06.5-3.27,1.24-3.83,2.32-.45.9-.43,2.03.1,3.45-1.38-.52-2.76-.88-3.83-.23-.83.5-1.34,1.54-1.53,3.15-2.68-.59-6.57-1.38-9.11.41-1.36.96-2.2,2.56-2.52,4.76-4.94.25-8.33,1.97-8.44,4.29-.1,1.95,2.33,4.39,9.41,5.43.95,2.41,3.7,4.04,6.79,4.04.08,0,.17,0,.25,0,3.77-.11,6.79-2.59,8.12-6.66.53.39.98.77,1.42,1.13,1.96,1.62,3.35,2.81,8.56,2.45,2.64,3.63,6.17,5.15,9.35,5.15,1.68,0,3.25-.43,4.54-1.19,2.79-1.65,4.84-5.32,2.45-10.77,3.11,1.08,5.57.99,7.28-.27,2.03-1.49,2.95-4.57,2.74-9.16.63.08,1.23.19,1.77.29,1.57.29,2.8.52,3.72-.18.8-.62,1.25-1.91,1.44-4.16,8.06,4.9,10.05,4.95,19.7.82.41.52.8,1.02,1.18,1.5,4.45,5.68,6.29,8.06,17.83,6.37,2.77,4.25,5.78,6.64,9.16,7.29,3.91.74,8.39-.73,13.75-4.5,5.21,1.63,9.7,1.48,12.67-.41,2.06-1.31,3.35-3.44,3.75-6.18,3.67-1.29,7.34-5.07,7.2-9.26-.07-2.28-1.46-6.43-9.93-8.73Z"/><g><polygon class="cls-12" points="550.48 401.7 549.73 400.52 539.97 400.91 534.65 392.58 533.24 392.65 528.81 401.37 518.6 401.82 517.95 403.07 523.28 411.41 518.84 420.19 519.6 421.37 529.35 420.97 534.67 429.31 536.07 429.27 540.96 420.51 550.72 420.07 551.37 418.82 546.05 410.48 550.48 401.7"/><polygon class="cls-12" points="457.67 415.3 456.5 414.54 447.63 418.88 439.66 413.48 438.4 414.08 437.51 423.94 428.63 428.38 428.55 429.79 436.96 435.23 436.08 445.06 437.25 445.86 446.13 441.51 454.56 446.93 455.82 446.28 456.26 436.45 465.12 432.06 465.22 430.67 457.22 425.16 457.67 415.3"/><polygon class="cls-12" points="503.62 405.49 502.66 404.44 492.88 406.75 485.77 399.64 484.41 399.99 481.75 409.48 472.45 411.83 472.06 413.17 478.72 420.36 476.05 429.82 477.03 430.83 486.34 428.52 493.44 435.63 494.8 435.27 497.46 425.83 507.22 423.44 507.6 422.08 500.52 414.95 503.62 405.49"/><polygon class="cls-12" points="685.85 429.78 685.75 428.38 676.89 423.95 676.45 414.11 675.2 413.47 666.76 418.88 657.88 414.54 656.71 415.34 657.6 425.16 649.18 430.65 649.26 432.06 658.12 436.45 658.56 446.28 659.82 446.93 668.26 441.51 677.13 445.86 678.31 445.09 677.86 435.23 685.85 429.78"/><polygon class="cls-12" points="595.78 401.82 586.02 401.37 581.12 392.62 579.73 392.57 574.41 400.91 564.66 400.52 563.9 401.7 568.34 410.5 563.46 418.85 564.12 420.07 573.86 420.51 578.3 429.24 579.71 429.31 585.03 420.97 594.78 421.37 595.54 420.19 591.11 411.41 596.43 403.06 595.78 401.82"/><polygon class="cls-12" points="642.38 411.83 632.63 409.48 629.97 399.99 628.61 399.64 621.5 406.75 612.2 404.44 611.22 405.45 613.88 414.95 607.22 422.1 607.62 423.44 616.92 425.83 619.58 435.27 620.94 435.63 628.04 428.52 637.35 430.83 638.33 429.82 635.67 420.37 642.77 413.19 642.38 411.83"/></g><path class="cls-1" d="m685.06,642.86c13.81-7.71,11.59-15.95,7.9-29.5-2.05-7.53-4.6-16.91-5.26-29.06l-1.54-.31c-5.3,10.78-10.63,16.42-14.91,20.96-4.47,4.74-8,8.48-9.57,15.65-.46,2.07-.64,5.23.33,7.29l.21.44h.05s0,.1.04.15l11.33,16.15c-4.98,7.48-13.5,16.11-28.06,22.11-23.21,9.09-56.36,3.26-56.69,3.21l-.67-.12-.24.63c-.07.19-1.72,4.65-.1,7.24.03.04.07.05.1.09l.88,15.76h0c-6.78.88-15.81,1.43-27.29,1.43-13.95,0-26.17-.86-35.17-2.11l.91-15.88c1.13-2.6.03-6.32-.03-6.49l-.92-.56c-.34.06-33.47,5.9-56.68-3.2-14.81-6.01-23.66-14.68-28.92-22.18l11.29-16.09s.02-.1.04-.14h.06s.21-.44.21-.44c.98-2.06.79-5.22.33-7.3-1.57-7.17-5.1-10.91-9.57-15.65-4.28-4.54-9.61-10.19-14.91-20.96l-1.54.31c-.66,12.15-3.21,21.53-5.26,29.06-3.7,13.57-5.92,21.81,7.93,29.52-1.32,5.4-3.19,11.28-5.72,15.35l-.17.27.06.31c7.95,40.58,77.36,44.04,85.45,44.3v7.1c0,4.15,5.25,7.4,15.59,9.68,8.73,1.92,20.48,2.98,33.07,2.98,18.07,0,48.66-2.67,48.66-12.66v-7.1c8.09-.26,77.49-3.72,84.98-44.31l.06-.31-.16-.27c-2.53-4.08-4.57-9.97-6.08-15.37Z"/></g><circle class="cls-6" cx="557.39" cy="557.39" r="557.39"/></g></g></g></g></g></svg>