<?xml version="1.0" encoding="UTF-8"?><svg xmlns="http://www.w3.org/2000/svg" xmlns:xlink="http://www.w3.org/1999/xlink" viewBox="0 0 1114.78 1114.78"><defs><style>.cls-1{isolation:isolate;}.cls-2{fill:#418fde;}.cls-3{fill:#e4002b;}.cls-4{fill:url(#radial-gradient);mix-blend-mode:multiply;opacity:.3;}.cls-5{clip-path:url(#clippath);}.cls-6{fill:none;}.cls-7{fill:#ffc72c;}.cls-8{fill:#43b02a;}</style><clipPath id="clippath"><circle class="cls-6" cx="557.39" cy="557.39" r="557.39"/></clipPath><radialGradient id="radial-gradient" cx="557.39" cy="557.39" fx="557.39" fy="557.39" r="557.39" gradientUnits="userSpaceOnUse"><stop offset="0" stop-color="#fff"/><stop offset=".36" stop-color="#fdfdfd"/><stop offset=".48" stop-color="#f6f6f6"/><stop offset=".58" stop-color="#eaeaea"/><stop offset=".65" stop-color="#d9d9d9"/><stop offset=".71" stop-color="#c3c3c3"/><stop offset=".77" stop-color="#a8a8a8"/><stop offset=".82" stop-color="#878787"/><stop offset=".87" stop-color="#626262"/><stop offset=".91" stop-color="#373737"/><stop offset=".95" stop-color="#090909"/><stop offset=".96" stop-color="#000"/></radialGradient></defs><g class="cls-1"><g id="Layer_2"><g id="Layer_1-2"><g id="Eritrea"><g class="cls-5"><g><polygon class="cls-2" points="2229.57 557.39 2229.57 1114.78 0 1114.78 2229.57 557.39"/><g><polygon class="cls-3" points="2229.57 557.39 0 1114.78 0 0 2229.57 557.39"/><polygon class="cls-8" points="2229.57 0 2229.57 557.39 0 0 2229.57 0"/><path class="cls-7" d="m771.83,651.53l1.24-8.67c63.95-28.02,63.02-97.23,63.02-105.59,0-29.57-10.06-45.52-13.63-46.29,2.48,21.83-21.21,53.73-31.9,61.78l-2.01-6.66c21.68-18.27,29.11-52.02,31.59-71.07,3.72-34.06-31.28-72.46-36.08-74.94,7.59,37.78.46,54.5-6.19,68.28l-3.1-7.28c26.48-47.38-15.02-116.43-45.83-115.04,16.41,15.17,12.7,43.97,10.22,50.94-1.7-2.79-2.17-3.25-4.34-5.57,6.5-48.15-38.86-75.4-55.58-81.13-10.22-3.1-24.46-3.41-24.62-1.39,4.64,5.26,34.84,15.95,34.53,45.06-1.7-2.01-10.22-6.97-15.02-8.36-5.73-25.7-37.47-43.66-63.33-43.66-3.25,0-5.26.46-5.88.77,1.39.93,29.26,24.77,26.79,28.33-2.17,1.39-12.7-13.16-25.24-18.89-10.68-4.95-22.61-4.8-33.75-2.94,3.41,19.04,59.92,22.61,60.23,30.19-5.42,1.08-20.9-4.49-44.59-8.36,33.6,45.52,73.54,24,86.71,27.41,7.43,1.86,16.57,8.67,16.57,12.23-18.27-7.28-26.17,8.36-43.97-1.08,5.88,34.37,66.58,49.24,79.27,29.11,9.91,10.06,9.13,13.93,10.22,16.26-19.66-9.29-30.97,12.39-44.75-4.95,2.01,34.37,47.53,57.44,72.15,54.97,1.7,3.1,9.91,20.75,9.29,24-2.79-1.08-1.08-5.88-17.5-7.74-25.08-2.79-25.39-7.9-33.29-23.53-9.6,17.65,27.87,75.25,58.99,91.97.46,4.18-.15,15.48-4.18,20.13-2.32-9.13-7.9-11.46-15.02-15.95-11.3-6.97-19.97-10.53-24-33.75-13.63,21.52,1.39,92.28,25.08,119.68-2.48,5.26-8.67,18.73-10.68,21.83,3.1-12.39-6.81-15.64-15.48-30.04-8.67-14.55-8.52-40.1-8.21-43.82-23.53,31.28-24.93,124.79-21.21,134.86-1.7,3.25-17.5,16.72-24.31,21.21-.77-2.01-.31-1.7,3.1-8.98,6.19-12.23,1.7-48.62,15.79-73.54-23.07,2.48-62.09,62.4-75.09,85.62-14.02,22.61-29.98,40.21-58.09,51.12.9-20.32.14-44.91-4.62-88.9,16.41-8.36,29.26-25.7,32.98-31.9,14.4,8.05,39.02,8.05,52.95,1.7,21.99-11.3,32.82-35.61,32.05-39.79-19.04,17.5-31.28,18.58-38.86,19.04,1.55-4.49,13.93-9.44,23.22-20.28,10.84-12.23,14.86-32.51,12.85-33.29-6.66,8.05-14.71,12.23-26.48,11.46-18.73-1.08-24.46,8.52-29.88,15.33-1.7-4.95-1.24-19.04,3.72-26.48,3.56-6.81,14.09-11.46,13.01-13.78-56.05,11.15-49.08,57.44-45.21,69.05-10.84,25.55-28.02,28.18-34.22,34.37-4.03-14.4-11.15-37.31-14.4-52.18-4.64-21.68-5.11-52.64-2.32-56.2,2.01-2.63,12.08-2.32,18.89-6.04,4.49-2.32,13.78-12.23,24.31-12.7,10.84-.62,14.24,13.93,39.95,6.19,23.84-7.28,30.5-24.15,29.73-26.79-17.5,12.23-36.85,7.74-40.26,2.32,17.03-1.24,42.58-8.52,48.31-35.92-1.39,1.86-11.61,7.59-17.81,7.28-6.19,0-13.16-5.11-21.37-4.18-8.52,1.55-11.77,8.83-13.62,7.12,0-13.32,14.09-21.06,18.58-22.61-9.29-.62-21.06-1.86-31.12,5.88-11.77,9.6-20.59,45.52-26.48,50.47-13.32,11.92-25.7,15.64-26.01,13.01,15.79-28.33,32.98-69.67,36.85-87.17,2.01-4.34,22.76-17.19,25.86-18.89,6.5,3.41,28.02,6.19,40.88-1.55,19.35-12.85,17.03-22.45,15.17-23.69-1.7,5.26-8.98,7.9-17.03,8.98-8.05,1.08-13.01-1.24-11.15-3.25,1.24-1.08,1.39,1.24,7.9-2.32.46-.31,1.08-.62,1.55-.93,18.73-11.61,21.37-26.63,19.51-31.43-1.7,2.32-5.42,6.5-11.46,8.36-6.5,1.55-11.15-4.49-21.99,1.08-7.12,4.34-6.04,10.84-9.75,11.46-2.01-5.57.15-10.99,4.8-18.42,5.88-6.66,10.37-3.72,12.23-8.98-15.95-4.95-25.7,2.17-31.43,12.08-8.21,13.16-6.19,30.35-8.67,39.02-2.32,7.43-9.6,10.84-15.48,14.55,1.39-5.73,8.21-33.29,5.42-51.87-2.48-21.52-10.22-27.25-10.06-32.51,2.94-4.18,8.83-23.84,3.41-37.47-9.75-23.07-15.95-24.15-19.35-23.07,3.41,2.63,3.56,9.75,2.32,15.95-1.08,5.73,2.79,14.09-.46,20.13-8.52-18.58-19.97-20.59-22.3-34.06-2.32.31-5.26,1.86-6.5,5.73-7.74,30.19,12.85,32.51,11.61,37.78-3.72,2.48-19.2-10.68-22.14-15.95-3.25,2.94-2.48,12.85,5.88,22.45,20.13,21.52,36.08,15.33,39.33,13.32,13.47,20.28,6.5,55.12,3.1,73.08-2.79,14.71-10.06,46.29-13.01,46.76-7.28,1.86-32.51-22.61-32.2-26.79.62-5.73,1.39-11.15,1.08-18.27-1.39-21.52-33.13-46.45-36.08-42.27,9.6,10.84,12.39,28.33,12.08,34.22-2.48-5.73-13.01-17.5-22.76-16.1-14.71,2.94-18.89-7.74-24.15-15.33-.77,25.7,8.67,34.84,16.57,42.11,10.68,7.28,12.39,5.88,12.08,8.67-.31,2.63-26.63-.77-31.59-1.39,2.94,7.59,9.75,13.01,17.5,17.5,14.4,8.83,48.62,2.63,52.49,2.79,3.56,2.17,21.37,19.51,28.18,26.79-3.25,10.37-18.12,33.91-22.61,49.7-12.85,45.21-2.79,65.49-2.94,78.65-4.64-3.56-22.76-20.9-25.24-28.49-3.1-9.29,4.03-31.74-13.16-55.12-11.77-15.33-29.26-18.89-34.37-14.55,17.34,6.04,17.96,30.19,16.1,35.15-1.24-2.63-6.66-12.7-12.39-15.95-5.11-3.1-21.21-.15-28.02-2.48-6.04-2.32-12.85-12.23-17.34-15.17-3.1,28.64,26.48,50.94,45.52,57.75-12.54,2.32-36.08-6.35-44.75-12.23,11.46,44.59,66.58,44.28,80.98,32.51,6.66,6.04,29.73,33.29,37.62,40.26,10.28,35.22,13.22,88.03,12.24,127.65-.06-.02-.11-.05-.17-.07-29.57-10.84-45.98-28.8-60.38-52.02-13.01-23.22-52.02-83.14-75.09-85.62,14.09,24.93,9.6,61.31,15.79,73.54,3.41,7.28,3.87,6.97,3.1,8.98-6.81-4.49-22.61-17.96-24.31-21.21,3.72-10.06,2.32-103.58-21.21-134.86.31,3.72.46,29.26-8.21,43.82-8.67,14.4-18.58,17.65-15.48,30.04-2.01-3.1-8.21-16.57-10.68-21.83,23.69-27.41,38.71-98.16,25.08-119.68-4.03,23.22-12.7,26.79-24,33.75-7.12,4.49-12.7,6.81-15.02,15.95-4.03-4.64-4.64-15.95-4.18-20.13,31.12-16.72,68.59-74.32,58.99-91.97-7.9,15.64-8.21,20.75-33.29,23.53-16.41,1.86-14.71,6.66-17.5,7.74-.62-3.25,7.59-20.9,9.29-24,24.62,2.48,70.14-20.59,72.15-54.97-13.78,17.34-25.08-4.34-44.75,4.95,1.08-2.32.31-6.19,10.22-16.26,12.7,20.13,73.39,5.26,79.27-29.11-17.81,9.44-25.7-6.19-43.97,1.08,0-3.56,9.14-10.37,16.57-12.23,13.16-3.41,53.11,18.12,86.71-27.41-23.69,3.87-39.17,9.44-44.59,8.36.31-7.59,56.82-11.15,60.23-30.19-11.15-1.86-23.07-2.01-33.75,2.94-12.54,5.73-23.07,20.28-25.24,18.89-2.48-3.56,25.39-27.41,26.79-28.33-.62-.31-2.63-.77-5.88-.77-25.86,0-57.6,17.96-63.33,43.66-4.8,1.39-13.32,6.35-15.02,8.36-.31-29.11,29.88-39.79,34.53-45.06-.15-2.01-14.4-1.7-24.62,1.39-16.72,5.73-62.09,32.98-55.58,81.13-2.17,2.32-2.63,2.79-4.34,5.57-2.48-6.97-6.19-35.77,10.22-50.94-30.81-1.39-72.31,67.66-45.83,115.04l-3.1,7.28c-6.66-13.78-13.78-30.5-6.19-68.28-4.8,2.48-39.79,40.88-36.08,74.94,2.48,19.04,9.91,52.8,31.59,71.07l-2.01,6.66c-10.68-8.05-34.37-39.95-31.9-61.78-3.56.77-13.63,16.72-13.63,46.29,0,8.36-.93,77.57,63.02,105.59l1.24,8.67c-16.72-8.67-42.11-19.66-60.54-55.43-1.7,2.48-5.26,38.86,23.53,86.4,16.88,26.94,71.07,55.12,91.2,49.24l8.98,8.67c-18.58,1.39-77.57-10.06-93.21-24.62-2.17,3.1,24,52.64,76.33,74.16,39.31,16.06,75.93,27.12,152.79,21.42-19.35,11.5-37.62,26.46-47.2,36.8l13.01,11.15c5.18-4.42,22.72-21.55,38.28-34.13-1.11,12.95-2.75,22.37-4.68,26.07,2.32,2.32,22.45-1.7,27.1,3.1,3.21-4.47-1.51-9.82-.65-29.79,15.75,12.63,33.78,30.24,39.05,34.74l13.01-11.15c-9.58-10.34-27.85-25.3-47.2-36.8,76.86,5.71,113.48-5.36,152.79-21.42,52.33-21.52,78.5-71.07,76.33-74.16-15.64,14.55-74.63,26.01-93.21,24.62l8.98-8.67c20.13,5.88,74.32-22.3,91.2-49.24,28.8-47.53,25.24-83.92,23.53-86.4-18.43,35.77-43.82,46.76-60.54,55.43Z"/></g></g><circle class="cls-4" cx="557.39" cy="557.39" r="557.39"/></g></g></g></g></g></svg>