<?xml version="1.0" encoding="UTF-8"?><svg xmlns="http://www.w3.org/2000/svg" xmlns:xlink="http://www.w3.org/1999/xlink" viewBox="0 0 1114.78 1114.78"><defs><style>.cls-1{fill:#fff;}.cls-2{fill:#3e5eb9;}.cls-3{isolation:isolate;}.cls-4{fill:#333;}.cls-5{fill:url(#radial-gradient);mix-blend-mode:multiply;opacity:.3;}.cls-6{fill:#ffd900;}.cls-7{clip-path:url(#clippath);}.cls-8{fill:none;}.cls-9{fill:#b10c0c;}</style><clipPath id="clippath"><circle class="cls-8" cx="557.39" cy="557.39" r="557.39"/></clipPath><radialGradient id="radial-gradient" cx="557.39" cy="557.39" fx="557.39" fy="557.39" r="557.39" gradientUnits="userSpaceOnUse"><stop offset="0" stop-color="#fff"/><stop offset=".36" stop-color="#fdfdfd"/><stop offset=".48" stop-color="#f6f6f6"/><stop offset=".58" stop-color="#eaeaea"/><stop offset=".65" stop-color="#d9d9d9"/><stop offset=".71" stop-color="#c3c3c3"/><stop offset=".77" stop-color="#a8a8a8"/><stop offset=".82" stop-color="#878787"/><stop offset=".87" stop-color="#626262"/><stop offset=".91" stop-color="#373737"/><stop offset=".95" stop-color="#090909"/><stop offset=".96" stop-color="#000"/></radialGradient></defs><g class="cls-3"><g id="Layer_2"><g id="Layer_1-2"><g id="Eswatini"><g class="cls-7"><g><rect class="cls-2" x="-278.7" width="1672.19" height="209.04"/><rect class="cls-2" x="-278.7" y="905.78" width="1672.19" height="209.01"/><rect class="cls-6" x="-278.7" y="209.04" width="1672.19" height="69.65"/><rect class="cls-6" x="-278.7" y="836.1" width="1672.19" height="69.68"/><rect class="cls-9" x="-278.7" y="278.69" width="1672.19" height="557.41"/><g><polygon class="cls-1" points="1094.86 428.49 1022.95 453.87 1094.86 479.24 1166.76 453.87 1094.86 428.49"/><path class="cls-6" d="m1050.33,444.52h-15.05s-.06-.01-.09-.01h0s-7.89.01-7.89.01c-.03,0-.06-.01-.09-.01h0s-7.88.01-7.88.01c-.03,0-.06-.01-.09-.01h0s-946.91.01-946.91.01c-5.55,0-10.06,4.2-10.06,9.37s4.51,9.37,10.06,9.37h977.99c5.55,0,10.06-4.2,10.06-9.37s-4.51-9.37-10.06-9.37Z"/><g id="a"><polygon class="cls-1" points="1030 476.29 958.11 501.66 1030 527.04 1101.9 501.66 1030 476.29"/><path class="cls-6" d="m985.48,492.31h-15.04s-.07-.01-.1-.01h0s-7.87.01-7.87.01c-.03,0-.07-.01-.1-.01h0s-7.87.01-7.87.01c-.03,0-.07-.01-.1-.01h0s-946.91.01-946.91.01c-5.55,0-10.06,4.2-10.06,9.37s4.51,9.37,10.06,9.37h977.99c5.55,0,10.06-4.2,10.06-9.37s-4.51-9.37-10.06-9.37Z"/></g><path class="cls-6" d="m1229.85,543.97H-100.23c-7.32,0-13.28,6.03-13.28,13.45s5.96,13.45,13.28,13.45h1330.08c7.32,0,13.28-6.03,13.28-13.45s-5.96-13.45-13.28-13.45Z"/></g><path class="cls-1" d="m957.49,557.41l-.98.98c-12.31,12.31-25.33,26.62-39.11,41.77-63.7,69.93-147.09,161.5-278.58,189.21-25.29,5.35-52.37,8.33-81.43,8.33-167.07,0-290.76-127.64-372.57-212.12-9.41-9.72-18.29-18.89-26.58-27.18l-.98-.98.98-1.01c8.26-8.26,17.14-17.42,26.52-27.11,80.91-83.5,202.67-209.25,366.94-212.08,1.89-.07,3.78-.07,5.7-.07,180.08,0,284.04,114.14,359.98,197.5,13.78,15.18,26.83,29.49,39.14,41.77l.98,1.01Z"/><path d="m638.83,789.36c-25.29,5.35-52.37,8.33-81.43,8.33-167.07,0-290.76-127.64-372.57-212.12-9.41-9.72-18.29-18.89-26.58-27.18l-.98-.98.98-1.01c8.26-8.26,17.14-17.42,26.52-27.11,80.91-83.5,202.67-209.25,366.94-212.08-12.24,12.49-47.82,53.07-24.45,81.01l-.04.04c21.65,24.35,3.57,34.14,26.48,35.75,24.17,1.78,10.46,25.71,30.78,26.55,14.2.63-1.43,57.37,12.24,76.12,13.96,19.52,25.61,5.7,25.85,19.8.25,14.59-37.92,13.12-38.58,58.07-1.12,25.89-32.18,27.56-33.69,44.21-1.85,15.67,61.25,24.49,60.41,38.51-.87,13.99-68.11,11.79-71.04,27.74-1.47,13.96,87.63,25.47,99.17,64.36Z"/><path class="cls-4" d="m1208.36,574.96c-29.98-20.15-49.73-19.68-59.23-19.44-2.07.05-4.42.11-4.79-.24-.31-.83,2.18-5.14,3.11-6.76l-.72-.42-.3-1.37h-.7l-.16.28c-33.21,15.55-60.04,47.88-65.31,78.75l-.49,2.89,2.37-1.73c4.23-3.09,7.71-5.6,11.49-7.99-3.07,11.08,1.23,23.96,5.4,36.45,2.15,6.44,4.37,13.1,5.52,19.35l.3,1.64,2.52-1.41c7.45-4.17,11.95-6.69,15.12-12.05,5.58,11.78,26.46,30.02,38.05,40.15l5.07,4.45.34-2.14c.68-4.2,10.4-17.8,17.24-26.55.69,1.8,1.92,3.91,4.42,5.43l1.73,1.05.08-2.02c.07-1.83,1.91-5.88,3.54-9.45,1.4-3.07,2.74-6.01,3.4-8.29.13.11.27.22.41.33,2.03,1.62,4.8,3.83,7.45,6.45l2.44,2.42-.42-3.41c-.5-4.02.11-8.07.69-11.99.53-3.53,1.07-7.16.76-10.7.07.1.14.21.21.32,1.2,1.87,2.85,4.43,7.02,5.62l2.47.71-1.06-2.34c-2.12-4.7-1.89-15.28-1.72-23.01.02-1.09.05-2.15.06-3.14,1.21,2.43,2.99,4.51,8.2,7.42l2.07,1.16-.31-2.36c-.38-2.84-1.46-6.65-2.6-10.68-1.63-5.74-3.78-13.34-2.98-16.53.73.8,1.42,1.68,2.09,2.55,1.26,1.62,2.44,3.15,3.92,4.14l1.85,1.24v-2.23c0-12.57-8.86-29.99-18.59-36.55Z"/><path class="cls-4" d="m29.31,562.7c-9.13-9.71-20.9-7-30.36-4.8-3.61.83-7.05,1.62-9.58,1.5-1.35-.07-6.59-1.59-11.66-3.05-8.11-2.35-17.31-5.01-21.5-5.21l-2.39-.11.96,2.19c2.22,5.09,1.97,5.22.55,5.93l-.54.28c-3.29,2.14-4.12,1.32-6.13-.67-1.16-1.15-2.59-2.58-4.77-3.49l-1.73,2.31c2.42,2.97,2.45,3.88,2.53,6.58.02.46.03.97.06,1.53-4.41-1.51-9.29-1-14.27,1.52-15.04,7.63-28.24,31.71-32.09,58.56l-.57,3.95,3.01-2.62c2.89-2.51,3.56-3.49,4.09-4.27.24-.35.44-.64.99-1.14-.17,4.43.74,7.79,1.91,12.11.91,3.36,2.05,7.55,2.94,13.44l.54,3.6,2.13-2.95c2.64-3.66,3.94-5.08,4.88-6.12.62-.68,1.13-1.25,1.78-2.15,1.61,4.78,2.62,9.43,3.75,14.69.75,3.49,1.57,7.29,2.67,11.65l1.26,5.01,1.59-4.92c1.25-3.87,1.75-5.95,2.11-7.47.36-1.49.57-2.42,1.31-4.1,5.5,5.34,7.65,11.75,9.72,17.96,2.84,8.5,5.78,17.28,17.2,22.54l1.25.58.67-1.2c1.63-2.92,3-5.09,4.48-6.45,2.87,2.93,5.75,4.12,9.6,5.71,2.86,1.18,6.42,2.65,10.99,5.33l1.71-2.42c-1.63-1.38-2.37-2.68-2.29-3.99.25-3.69,6.72-7.82,12.98-11.82,4.78-3.05,9.69-6.18,12.52-9.56.04.92.11,2.33.99,5.47l2.92-.4c0-10.3,2.45-14.95,5.55-20.83,1.28-2.42,2.69-5.09,4.06-8.42.11.16.22.3.33.44.36.47.72.95,1.58,2.58l2.8-.69c0-4.73.39-10.55.81-16.71.7-10.35,1.47-21.77.57-30.99.74,1.35,1.62,2.31,4.02,3.47l2.13,1.02v-2.36c0-3.35.17-6.52.33-9.59.62-11.68,1.15-21.77-8.44-31.46Z"/><path class="cls-4" d="m496.21,388.62c-27.36-20.55-49.06-20.09-60.71-19.88-3.87.08-7.22.15-7.83-.83-.47-.76.14-2.82,1.82-6.12l.61-.32-1.33-3.32-.99,1.93c-30.37,15.88-54.9,48.87-59.71,80.37l-.45,2.96,2.32-1.89c3.69-3.01,6.76-5.48,10.05-7.83-5.23,13.66-5.11,14.84-2.15,32.8l.55,3.35,1.62-2.1c2.19-2.84,3.35-4.26,4.51-5.68.9-1.1,1.8-2.2,3.17-3.95,3.81,11.88,12.54,21.19,21.92,30.45l1.62,1.6.32-2.25c.66-4.53,1.09-7.05,2.96-10.31,3.04,8.95,20.71,22.81,23.81,25.13l.2.17h0c.15.1.24.16.25.17l.92.43,1.07-1.72-.34-.28c.14-3.36.54-6.32,2.78-8.4,7.72,12.22,25.21,22.7,42.22,25.16l4.22.61-3.34-2.65c-4.48-3.55-1.82-11.39.98-19.69,2.41-7.13,4.9-14.47,3.44-20.39,4,2.36,7.85,5.02,11.47,7.93l1.87,1.5v-2.4c0-6.98-2.09-11.66-3.95-15.8-.71-1.59-1.38-3.08-1.87-4.57,1.34,1.11,2.91,1.83,4.75,2.67,1.79.82,3.82,1.75,6.31,3.3l1.76,1.1v-2.08c0-17.84-10.88-33.73-17.13-41.39,6.17,3.15,16.04,7.85,22.75,9.28l1.39.3v-1.42c0-12.37-12.7-38.98-21.91-45.92Z"/></g><circle class="cls-5" cx="557.39" cy="557.39" r="557.39"/></g></g></g></g></g></svg>