<?xml version="1.0" encoding="UTF-8"?><svg xmlns="http://www.w3.org/2000/svg" xmlns:xlink="http://www.w3.org/1999/xlink" viewBox="0 0 1114.78 1114.78"><defs><style>.cls-1{fill:#12953b;}.cls-2{isolation:isolate;}.cls-3{fill:#e71d25;}.cls-4{fill:url(#radial-gradient);mix-blend-mode:multiply;opacity:.3;}.cls-5{clip-path:url(#clippath);}.cls-6{fill:none;}.cls-7{fill:#ffea14;}.cls-8{fill:#1a53bc;}</style><clipPath id="clippath"><circle class="cls-6" cx="557.39" cy="557.39" r="557.39"/></clipPath><radialGradient id="radial-gradient" cx="557.39" cy="557.39" fx="557.39" fy="557.39" r="557.39" gradientUnits="userSpaceOnUse"><stop offset="0" stop-color="#fff"/><stop offset=".36" stop-color="#fdfdfd"/><stop offset=".48" stop-color="#f6f6f6"/><stop offset=".58" stop-color="#eaeaea"/><stop offset=".65" stop-color="#d9d9d9"/><stop offset=".71" stop-color="#c3c3c3"/><stop offset=".77" stop-color="#a8a8a8"/><stop offset=".82" stop-color="#878787"/><stop offset=".87" stop-color="#626262"/><stop offset=".91" stop-color="#373737"/><stop offset=".95" stop-color="#090909"/><stop offset=".96" stop-color="#000"/></radialGradient></defs><g class="cls-2"><g id="Layer_2"><g id="Layer_1-2"><g id="Ethiopia"><g class="cls-5"><g><rect class="cls-1" x="-555.25" y="0" width="2225.27" height="371.59"/><rect class="cls-7" x="-555.25" y="371.59" width="2225.27" height="371.59"/><rect class="cls-3" x="-555.25" y="743.19" width="2225.27" height="371.59"/><circle class="cls-8" cx="557.39" cy="557.39" r="371.59"/><circle class="cls-8" cx="557.39" cy="557.39" r="371.59"/><path class="cls-7" d="m780.49,466.21l-33.84,24.59h-227.94l7.99-24.59h71.09l-53.32-164.1,12.93-39.79,66.25,203.88h156.86Zm-138.64-14.62l93.94-129.3-9.94-7.23-93.94,129.3,9.94,7.23Zm196.16,14.62h-41.83l-139.59,101.42-21.97-67.61h-25.85l70.44,216.79,33.84,24.59-48.47-149.18,173.43-126.01Zm1.9,176.51l-152-49.39-3.8,11.69,152,49.39,3.8-11.69Zm-109.09,153.38l-12.93-39.79-139.59-101.42,57.51-41.78-7.99-24.59-184.41,133.98-12.93,39.79,126.9-92.2,173.43,126.01Zm-179.58,56.35h12.29v-159.83h-12.29v159.83Zm-186.11-352.43h-41.83l126.9,92.2-66.25,203.88,33.84-24.59,53.32-164.1,57.51,41.78,20.92-15.2-184.41-133.98Zm61.74,93.32l-152,49.39,3.8,11.69,152-49.39-3.8-11.69Zm112.74-276.3l-48.47,149.18h-214.38l33.84,24.59h172.54l-21.97,67.61,20.92,15.2,70.44-216.79-12.93-39.79Zm-56.74,127.34l-93.94-129.3-9.94,7.23,93.94,129.3,9.94-7.23Z"/></g><circle class="cls-4" cx="557.39" cy="557.39" r="557.39"/></g></g></g></g></g></svg>