<?xml version="1.0" encoding="UTF-8"?><svg xmlns="http://www.w3.org/2000/svg" xmlns:xlink="http://www.w3.org/1999/xlink" viewBox="0 0 1114.78 1114.78"><defs><style>.cls-1{fill:#fff;}.cls-2{isolation:isolate;}.cls-3{fill:#0b720b;}.cls-4{fill:#c80b0b;}.cls-5{fill:url(#radial-gradient);mix-blend-mode:multiply;opacity:.3;}.cls-6{clip-path:url(#clippath);}.cls-7{fill:none;}.cls-8{fill:#0b0b0b;}</style><clipPath id="clippath"><circle class="cls-7" cx="557.39" cy="557.39" r="557.39"/></clipPath><radialGradient id="radial-gradient" cx="557.39" cy="557.39" fx="557.39" fy="557.39" r="557.39" gradientUnits="userSpaceOnUse"><stop offset="0" stop-color="#fff"/><stop offset=".36" stop-color="#fdfdfd"/><stop offset=".48" stop-color="#f6f6f6"/><stop offset=".58" stop-color="#eaeaea"/><stop offset=".65" stop-color="#d9d9d9"/><stop offset=".71" stop-color="#c3c3c3"/><stop offset=".77" stop-color="#a8a8a8"/><stop offset=".82" stop-color="#878787"/><stop offset=".87" stop-color="#626262"/><stop offset=".91" stop-color="#373737"/><stop offset=".95" stop-color="#090909"/><stop offset=".96" stop-color="#000"/></radialGradient></defs><g class="cls-2"><g id="Layer_2"><g id="Layer_1-2"><g id="Kenya"><g class="cls-6"><g><rect class="cls-8" x="-279.02" y="0" width="1672.83" height="334.56"/><rect class="cls-1" x="-279.02" y="334.56" width="1672.83" height="56.31"/><rect class="cls-3" x="-279.02" y="780.23" width="1672.83" height="334.56"/><rect class="cls-1" x="-279.02" y="723.92" width="1672.83" height="56.31"/><rect class="cls-4" x="-279.02" y="390.86" width="1672.83" height="333.06"/><g><rect class="cls-1" x="133.98" y="520.91" width="846.79" height="28.04" transform="translate(-183.61 753.46) rotate(-60.26)"/><path class="cls-8" d="m360.21,911.93l-27.39-15.65.87-1.52L754.53,157.93l27.39,15.65-.87,1.52-420.84,736.83Zm-22.61-16.96l21.31,12.17L777.14,174.89l-21.31-12.17-418.23,732.26Z"/></g><g><rect class="cls-1" x="543.35" y="111.53" width="28.04" height="846.79" transform="translate(-191.92 346.86) rotate(-29.73)"/><path class="cls-8" d="m754.53,911.93l-.87-1.52L332.82,173.58l27.39-15.65.87,1.52,420.84,736.83-27.39,15.65ZM337.6,174.89l418.23,732.26,21.31-12.17L358.91,162.71l-21.31,12.17Z"/></g><path class="cls-4" d="m725.56,557.36c0,183.75-110.77,332.65-168.18,332.65-36.74,0-95.2-60.85-132.64-152.76-21.1-51.88-35.54-113.57-35.54-179.89s14.44-127.94,35.54-179.82c37.44-91.91,95.9-152.76,132.64-152.76,57.42,0,168.18,148.91,168.18,332.58Z"/><path class="cls-8" d="m460.21,557.36c0,66.32-14.44,128.01-35.47,179.89-21.1-51.88-35.54-113.57-35.54-179.89s14.44-127.94,35.54-179.82c21.03,51.88,35.47,113.57,35.47,179.82Z"/><path class="cls-8" d="m654.54,557.36c0,66.32,14.44,128.01,35.47,179.89,21.1-51.88,35.54-113.57,35.54-179.89,0-66.25-14.44-127.94-35.54-179.82-21.03,51.88-35.47,113.57-35.47,179.82Z"/><ellipse class="cls-1" cx="557.39" cy="557.39" rx="27.52" ry="41.5"/><path class="cls-1" d="m550.16,517.39c-37.34-115.75-37.86-187.17,0-291.95v291.95Z"/><path class="cls-1" d="m564.59,517.39c37.34-115.75,37.86-187.17,0-291.95v291.95Z"/><path class="cls-1" d="m550.16,597.39c-37.34,115.75-37.86,187.17,0,291.95v-291.95Z"/><path class="cls-1" d="m564.59,597.39c37.34,115.75,37.86,187.17,0,291.95v-291.95Z"/></g><circle class="cls-5" cx="557.39" cy="557.39" r="557.39"/></g></g></g></g></g></svg>