<?xml version="1.0" encoding="UTF-8"?><svg xmlns="http://www.w3.org/2000/svg" xmlns:xlink="http://www.w3.org/1999/xlink" viewBox="0 0 1114.78 1114.78"><defs><style>.cls-1{fill:#fff;}.cls-2{isolation:isolate;}.cls-3{fill:#009a44;}.cls-4{fill:url(#radial-gradient);mix-blend-mode:multiply;opacity:.3;}.cls-5{fill:#001489;}.cls-6{clip-path:url(#clippath);}.cls-7{fill:none;}</style><clipPath id="clippath"><circle class="cls-7" cx="557.39" cy="557.39" r="557.39"/></clipPath><radialGradient id="radial-gradient" cx="557.39" cy="557.39" fx="557.39" fy="557.39" r="557.39" gradientUnits="userSpaceOnUse"><stop offset="0" stop-color="#fff"/><stop offset=".36" stop-color="#fdfdfd"/><stop offset=".48" stop-color="#f6f6f6"/><stop offset=".58" stop-color="#eaeaea"/><stop offset=".65" stop-color="#d9d9d9"/><stop offset=".71" stop-color="#c3c3c3"/><stop offset=".77" stop-color="#a8a8a8"/><stop offset=".82" stop-color="#878787"/><stop offset=".87" stop-color="#626262"/><stop offset=".91" stop-color="#373737"/><stop offset=".95" stop-color="#090909"/><stop offset=".96" stop-color="#000"/></radialGradient></defs><g class="cls-2"><g id="Layer_2"><g id="Layer_1-2"><g id="Lesotho"><g class="cls-6"><g><rect class="cls-1" x="-278.7" y="334.45" width="1672.17" height="445.89"/><rect class="cls-5" x="-278.7" width="1672.17" height="334.45"/><rect class="cls-3" x="-278.7" y="780.34" width="1672.17" height="334.45"/><path d="m557.4,352.25c5.85,0,11.22,3.26,13.9,8.46,33.05,3.94,50.42,27.87,56.48,55.7,7.07,32.53-.42,76.76-23.37,123.21l88.17,116.99c4.68-2.19,9.31-4.49,13.88-6.91l32.41,68.6c-113.79,58.92-249.11,58.92-362.91,0l32.41-68.6c4.57,2.41,9.19,4.72,13.88,6.91l88.17-116.99c-22.95-46.44-30.44-90.68-23.37-123.21,6.05-27.83,23.43-51.76,56.48-55.7,2.68-5.2,8.04-8.47,13.9-8.46Zm34.92,171.32c17.88-39.91,23.69-77.76,18.04-102.78-5-22.14-16.2-38.58-38.46-42.08v57.15l27.87,27.87h-22.3v40.13l14.85,19.71Zm-49.41-144.86c-22.26,3.5-33.46,19.95-38.46,42.08-5.65,25.02.16,62.87,18.04,102.78l14.85-19.71v-40.13h-22.3l27.87-27.87v-57.15Zm-123.74,300.34l-9.54,20.15,15.43-4.14-5.89-16.01Zm-7.76,28.91c7.08,3.04,14.25,5.86,21.5,8.46l-4.76-12.94-16.74,4.48Zm35.1-3.03l20.01-6.33-5.75-12.9c-8.26-2.51-16.41-5.34-24.45-8.48l10.19,27.71Zm23.65,1.87l-20.56,6.51,3.56,9.67c9,2.64,18.1,4.94,27.27,6.89l-10.27-23.07Zm22.22,8.76l22.04-9.04-5.28-9.97c-9.26-1.36-18.46-3.12-27.57-5.26l10.81,24.27Zm26.24-1.11l-22.61,9.26,4.38,9.85c10.01,1.56,20.08,2.71,30.18,3.44l-11.94-22.55Zm22.22,6.25l27.49-14.37-3.98-6.33c-11.7.25-23.4-.13-35.06-1.11l11.55,21.82Zm32.29-6.81l-28.11,14.69,4.94,9.32c12.55.25,25.11-.13,37.62-1.15l-14.45-22.85Zm23.07,5.22l21.62-14.85-6.27-8.62c-9.29,1.53-18.64,2.67-28.03,3.4l12.68,20.07Zm26.87-7.64l-22.1,15.19,5.12,8.1c10.11-1.34,20.17-3.09,30.14-5.26l-13.16-18.04Zm20.11-.82l18-15.97-7.35-8.9c-7.97,2.42-16.03,4.54-24.17,6.35l13.52,18.51Zm23.69-9.1l-18.41,16.34,5.34,7.33c8.76-2.37,17.43-5.06,26-8.06l-12.92-15.61Zm18.35-4.04l12.2-14.71-5.32-11.25c-6.99,3.1-14.09,5.95-21.28,8.56l14.39,17.4Zm16.42-5.81l-10.63,12.8,5.32,6.43c4.02-1.63,8.02-3.33,11.98-5.1l-6.67-14.13Z"/></g><circle class="cls-4" cx="557.39" cy="557.39" r="557.39"/></g></g></g></g></g></svg>