<?xml version="1.0" encoding="UTF-8"?><svg xmlns="http://www.w3.org/2000/svg" xmlns:xlink="http://www.w3.org/1999/xlink" viewBox="0 0 1114.78 1114.78"><defs><style>.cls-1{fill:#fff;}.cls-2{fill:#0d3471;}.cls-3{isolation:isolate;}.cls-4{fill:#c4173b;}.cls-5{fill:url(#radial-gradient);mix-blend-mode:multiply;opacity:.3;}.cls-6{clip-path:url(#clippath);}.cls-7{fill:none;}</style><clipPath id="clippath"><circle class="cls-7" cx="557.39" cy="557.39" r="557.39"/></clipPath><radialGradient id="radial-gradient" cx="557.39" cy="557.39" fx="557.39" fy="557.39" r="557.39" gradientUnits="userSpaceOnUse"><stop offset="0" stop-color="#fff"/><stop offset=".36" stop-color="#fdfdfd"/><stop offset=".48" stop-color="#f6f6f6"/><stop offset=".58" stop-color="#eaeaea"/><stop offset=".65" stop-color="#d9d9d9"/><stop offset=".71" stop-color="#c3c3c3"/><stop offset=".77" stop-color="#a8a8a8"/><stop offset=".82" stop-color="#878787"/><stop offset=".87" stop-color="#626262"/><stop offset=".91" stop-color="#373737"/><stop offset=".95" stop-color="#090909"/><stop offset=".96" stop-color="#000"/></radialGradient></defs><g class="cls-3"><g id="Layer_2"><g id="Layer_1-2"><g id="Liberia"><g class="cls-6"><g><g><rect class="cls-4" x="0" y="1.02" width="2117.48" height="101.25"/><rect class="cls-1" x="0" y="102.27" width="2117.48" height="101.25"/><rect class="cls-4" x="0" y="203.52" width="2117.48" height="101.25"/><rect class="cls-1" x="0" y="304.78" width="2117.48" height="101.25"/><rect class="cls-4" x="0" y="406.03" width="2117.48" height="101.25"/><rect class="cls-1" x="0" y="507.28" width="2117.48" height="101.25"/><rect class="cls-4" x="0" y="608.53" width="2117.48" height="101.25"/><rect class="cls-1" x="0" y="709.78" width="2117.48" height="101.25"/><rect class="cls-4" x="0" y="811.03" width="2117.48" height="101.25"/><rect class="cls-1" x="0" y="912.28" width="2117.48" height="101.25"/><rect class="cls-4" x="0" y="1013.53" width="2117.48" height="101.25"/></g><rect class="cls-2" y="0" width="507.28" height="507.28"/><polygon class="cls-1" points="253.64 101.44 287.81 206.61 398.38 206.61 308.93 271.6 343.1 376.77 253.64 311.77 164.18 376.77 198.35 271.6 108.89 206.61 219.47 206.61 253.64 101.44"/></g><circle class="cls-5" cx="557.39" cy="557.39" r="557.39"/></g></g></g></g></g></svg>