<?xml version="1.0" encoding="UTF-8"?><svg xmlns="http://www.w3.org/2000/svg" xmlns:xlink="http://www.w3.org/1999/xlink" viewBox="0 0 1114.78 1114.78"><defs><style>.cls-1{fill:#eb0d1f;}.cls-2{fill:#fff;}.cls-3{isolation:isolate;}.cls-4{fill:#0d0d0d;}.cls-5{fill:url(#radial-gradient);mix-blend-mode:multiply;opacity:.3;}.cls-6{clip-path:url(#clippath);}.cls-7{fill:none;}.cls-8{fill:#2fa550;}</style><clipPath id="clippath"><circle class="cls-7" cx="557.39" cy="557.39" r="557.39"/></clipPath><radialGradient id="radial-gradient" cx="557.39" cy="557.39" fx="557.39" fy="557.39" r="557.39" gradientUnits="userSpaceOnUse"><stop offset="0" stop-color="#fff"/><stop offset=".36" stop-color="#fdfdfd"/><stop offset=".48" stop-color="#f6f6f6"/><stop offset=".58" stop-color="#eaeaea"/><stop offset=".65" stop-color="#d9d9d9"/><stop offset=".71" stop-color="#c3c3c3"/><stop offset=".77" stop-color="#a8a8a8"/><stop offset=".82" stop-color="#878787"/><stop offset=".87" stop-color="#626262"/><stop offset=".91" stop-color="#373737"/><stop offset=".95" stop-color="#090909"/><stop offset=".96" stop-color="#000"/></radialGradient></defs><g class="cls-3"><g id="Layer_2"><g id="Layer_1-2"><g id="Libya"><g class="cls-6"><g><rect class="cls-1" x="-557.39" y="0" width="2229.57" height="278.97"/><rect class="cls-8" x="-557.39" y="835.82" width="2229.57" height="278.97"/><rect class="cls-4" x="-557.39" y="278.97" width="2229.57" height="556.85"/><path class="cls-2" d="m586.43,679.14c21.76,0,42.22-5.67,59.87-15.72-24.07,20.21-55.07,32.37-88.93,32.37-76.4,0-138.38-61.99-138.38-138.38s61.99-138.38,138.38-138.38c33.86,0,64.92,12.16,88.99,32.43-17.71-10.1-38.17-15.84-59.93-15.84-67.29,0-121.8,54.51-121.8,121.79s54.51,121.73,121.8,121.73Z"/><polygon class="cls-2" points="696.52 458.46 740.87 520.15 813.25 497.04 768.28 558.28 812.63 619.97 740.49 596.13 695.53 657.37 695.91 581.39 623.77 557.55 696.14 534.44 696.52 458.46"/></g><circle class="cls-5" cx="557.39" cy="557.39" r="557.39"/></g></g></g></g></g></svg>