<?xml version="1.0" encoding="UTF-8"?><svg xmlns="http://www.w3.org/2000/svg" xmlns:xlink="http://www.w3.org/1999/xlink" viewBox="0 0 1114.78 1114.78"><defs><style>.cls-1{isolation:isolate;}.cls-2{fill:#d22437;}.cls-3{fill:#43a645;}.cls-4{fill:url(#radial-gradient);mix-blend-mode:multiply;opacity:.3;}.cls-5{clip-path:url(#clippath);}.cls-6{fill:none;}.cls-7{fill:#141414;}</style><clipPath id="clippath"><circle class="cls-6" cx="557.39" cy="557.39" r="557.39"/></clipPath><radialGradient id="radial-gradient" cx="557.39" cy="557.39" fx="557.39" fy="557.39" r="557.39" gradientUnits="userSpaceOnUse"><stop offset="0" stop-color="#fff"/><stop offset=".36" stop-color="#fdfdfd"/><stop offset=".48" stop-color="#f6f6f6"/><stop offset=".58" stop-color="#eaeaea"/><stop offset=".65" stop-color="#d9d9d9"/><stop offset=".71" stop-color="#c3c3c3"/><stop offset=".77" stop-color="#a8a8a8"/><stop offset=".82" stop-color="#878787"/><stop offset=".87" stop-color="#626262"/><stop offset=".91" stop-color="#373737"/><stop offset=".95" stop-color="#090909"/><stop offset=".96" stop-color="#000"/></radialGradient></defs><g class="cls-1"><g id="Layer_2"><g id="Layer_1-2"><g id="Malawi"><g class="cls-5"><g><rect class="cls-2" x="-278.7" y="371.59" width="1672.17" height="371.59"/><rect class="cls-3" x="-278.7" y="743.19" width="1672.17" height="371.59"/><rect class="cls-7" x="-278.7" width="1672.17" height="371.59"/><path class="cls-2" d="m673.97,181.14c11.3-42.17,14.5-57.47,26.8-83.85,5.1-10.95,13.01-20.58,20.31-17.18,7.3,3.4,5,15.66-.1,26.6-12.3,26.38-21.96,38.67-47.01,74.43Zm74.02-59.27c6.04-10.46,9.4-22.47,2.42-26.49-6.97-4.03-15.69,4.88-21.73,15.34-14.55,25.21-19.07,40.17-34.01,81.2,28.07-33.45,38.76-44.84,53.32-70.05Zm25.59,17.45c6.93-9.89,11.32-21.56,4.72-26.18-6.59-4.62-16.06,3.5-22.99,13.39-16.7,23.84-22.5,38.35-40.96,77.93,30.87-30.87,42.52-41.29,59.22-65.14Zm-80.83-45.36c4.13-11.35,5.35-23.76-2.21-26.51-7.57-2.75-14.61,7.54-18.74,18.88-9.96,27.35-11.81,42.87-19.39,85.87,21.83-37.81,30.39-50.89,40.34-78.25Zm-29.23-10.24c3.13-11.67,3.26-24.13-4.52-26.22-7.78-2.08-13.89,8.78-17.02,20.45-7.53,28.12-8.03,43.74-11.83,87.23,18.45-39.57,25.84-53.35,33.37-81.46Zm69.36,134.94c33.45-28.07,45.96-37.43,64.67-59.73,7.76-9.25,13.15-20.49,6.99-25.67-6.17-5.18-16.3,2.09-24.07,11.34-18.71,22.3-25.76,36.25-47.59,74.06Zm-129.94-147.6c1.05-12.03-.98-24.33-9-25.03-8.02-.7-12.16,11.06-13.21,23.09-2.54,29-.31,44.47,3.49,87.96,11.3-42.17,16.18-57.02,18.72-86.02Zm-30.89-2.32c0-12.08-3.1-24.15-11.15-24.15s-11.15,12.08-11.15,24.15c0,29.11,3.57,44.33,11.15,87.32,7.58-43,11.15-58.22,11.15-87.32Zm61.45,7.33c2.1-11.89,1.14-24.32-6.78-25.72-7.93-1.4-13.08,9.96-15.17,21.85-5.05,28.67-4.19,44.27-4.19,87.93,14.93-41.03,21.09-55.4,26.14-84.06Zm169.88,234.47c42.17-11.3,57.47-14.5,83.85-26.8,10.95-5.1,20.58-13.01,17.18-20.31-3.4-7.3-15.66-5-26.6.1-26.38,12.3-38.67,21.96-74.43,47.01Zm8.93,21.56c43-7.58,58.52-9.44,85.87-19.39,11.35-4.13,21.64-11.17,18.88-18.74-2.75-7.57-15.16-6.35-26.51-2.21-27.35,9.96-40.43,18.51-78.25,40.34Zm-19.71-42.27c41.03-14.93,55.99-19.45,81.2-34.01,10.46-6.04,19.37-14.76,15.34-21.73-4.03-6.97-16.03-3.62-26.49,2.42-25.21,14.55-36.6,25.25-70.05,53.32Zm108.19,31.16c-21.96,5.88-35.17,11.68-58.76,22.72h59.97c1.49-.38,3.01-.77,4.56-1.19,11.67-3.13,22.53-9.24,20.45-17.02-2.08-7.78-14.55-7.64-26.22-4.52Zm-134.94-69.36c37.81-21.83,51.76-28.88,74.06-47.59,9.25-7.76,16.51-17.9,11.34-24.07-5.18-6.17-16.42-.78-25.67,6.99-22.3,18.71-31.66,31.22-59.73,64.67Zm-15.77-17.21c35.77-25.04,49.05-33.28,69.63-53.87,8.54-8.54,14.89-19.27,9.2-24.96-5.69-5.69-16.42.66-24.96,9.2-20.58,20.58-28.82,33.86-53.87,69.63Zm-189.18-50.49c-104.35,0-193.12,66.7-226.02,159.79h452.04c-32.91-93.09-121.67-159.79-226.02-159.79Zm219.16,86.22c39.57-18.45,54.08-24.26,77.93-40.96,9.89-6.93,18.01-16.39,13.39-22.99-4.62-6.6-16.29-2.2-26.18,4.72-23.84,16.7-34.26,28.35-65.14,59.22Zm-408.35-35.73c-25.04-35.77-33.28-49.05-53.87-69.63-8.54-8.54-19.27-14.89-24.96-9.2s.66,16.42,9.2,24.96c20.58,20.58,33.86,28.82,69.63,53.87Zm-107.9-5.23c23.84,16.7,38.35,22.5,77.93,40.96-30.87-30.87-41.29-42.52-65.14-59.22-9.89-6.93-21.56-11.32-26.18-4.72-4.62,6.6,3.5,16.06,13.39,22.99Zm-15.81,26.63c25.21,14.55,40.17,19.07,81.2,34.01-33.45-28.07-44.84-38.76-70.05-53.32-10.46-6.04-22.47-9.4-26.49-2.42-4.03,6.97,4.88,15.69,15.34,21.73Zm33.89-51.79c22.3,18.71,36.25,25.76,74.06,47.59-28.07-33.45-37.43-45.96-59.73-64.67-9.25-7.76-20.49-13.15-25.67-6.99s2.09,16.3,11.34,24.07Zm-47.32,79.7c26.38,12.3,41.68,15.5,83.85,26.8-35.77-25.04-48.05-34.71-74.43-47.01-10.95-5.1-23.2-7.4-26.6-.1-3.4,7.3,6.23,15.21,17.18,20.31Zm-10.95,28.97c27.35,9.96,42.87,11.81,85.87,19.39-37.81-21.83-50.89-30.39-78.25-40.34-11.35-4.13-23.76-5.35-26.51,2.21-2.75,7.57,7.54,14.61,18.88,18.74Zm-8.38,29.82c1.56.42,3.08.81,4.56,1.19h59.97c-23.59-11.05-36.8-16.84-58.76-22.72-11.67-3.13-24.13-3.26-26.22,4.52-2.08,7.78,8.78,13.89,20.45,17.02Zm254.16-170.33c-7.58-43-9.44-58.52-19.39-85.87-4.13-11.35-11.17-21.64-18.74-18.88-7.57,2.75-6.35,15.16-2.21,26.51,9.96,27.35,18.51,40.43,40.34,78.25Zm68.19-15.12c3.81-43.5,6.03-58.97,3.49-87.96-1.05-12.03-5.19-23.79-13.21-23.09-8.02.7-10.05,13-9,25.03,2.54,29,7.42,43.85,18.72,86.02Zm-45.93,8.1c-3.81-43.5-4.3-59.12-11.83-87.23-3.13-11.67-9.24-22.53-17.02-20.45-7.78,2.08-7.64,14.55-4.52,26.22,7.53,28.12,14.92,41.89,33.37,81.46Zm22.79-5.05c0-43.66.87-59.27-4.19-87.93-2.1-11.89-7.24-23.25-15.17-21.85-7.93,1.4-8.88,13.83-6.78,25.72,5.05,28.67,11.21,43.03,26.14,84.06Zm-107,44.32c-18.45-39.57-24.26-54.08-40.96-77.93-6.93-9.89-16.39-18.01-22.99-13.39-6.6,4.62-2.2,16.29,4.72,26.18,16.7,23.84,28.35,34.26,59.22,65.14Zm-18.52,14.21c-21.83-37.81-28.88-51.76-47.59-74.06-7.76-9.25-17.9-16.51-24.07-11.34-6.17,5.18-.78,16.42,6.99,25.67,18.71,22.3,31.22,31.66,64.67,59.73Zm38.2-26.75c-14.93-41.03-19.45-55.99-34.01-81.2-6.04-10.46-14.76-19.37-21.73-15.34s-3.62,16.03,2.42,26.49c14.55,25.21,25.25,36.6,53.32,70.05Zm20.7-10.78c-11.3-42.17-14.5-57.47-26.8-83.85-5.1-10.95-13.01-20.58-20.31-17.18-7.3,3.4-5,15.66.1,26.6,12.3,26.38,21.96,38.67,47.01,74.43Z"/></g><circle class="cls-4" cx="557.39" cy="557.39" r="557.39"/></g></g></g></g></g></svg>