<?xml version="1.0" encoding="UTF-8"?><svg xmlns="http://www.w3.org/2000/svg" xmlns:xlink="http://www.w3.org/1999/xlink" viewBox="0 0 1114.78 1114.78"><defs><style>.cls-1{fill:#0daf65;}.cls-2{isolation:isolate;}.cls-3{fill:url(#radial-gradient);mix-blend-mode:multiply;opacity:.3;}.cls-4{fill:#d5282b;}.cls-5{clip-path:url(#clippath);}.cls-6{fill:none;}.cls-7{fill:#ffdc0d;}</style><clipPath id="clippath"><circle class="cls-6" cx="557.39" cy="557.39" r="557.39"/></clipPath><radialGradient id="radial-gradient" cx="557.39" cy="557.39" fx="557.39" fy="557.39" r="557.39" gradientUnits="userSpaceOnUse"><stop offset="0" stop-color="#fff"/><stop offset=".36" stop-color="#fdfdfd"/><stop offset=".48" stop-color="#f6f6f6"/><stop offset=".58" stop-color="#eaeaea"/><stop offset=".65" stop-color="#d9d9d9"/><stop offset=".71" stop-color="#c3c3c3"/><stop offset=".77" stop-color="#a8a8a8"/><stop offset=".82" stop-color="#878787"/><stop offset=".87" stop-color="#626262"/><stop offset=".91" stop-color="#373737"/><stop offset=".95" stop-color="#090909"/><stop offset=".96" stop-color="#000"/></radialGradient></defs><g class="cls-2"><g id="Layer_2"><g id="Layer_1-2"><g id="Mauritania"><g class="cls-5"><g><rect class="cls-1" x="-279.02" y="222.09" width="1672.83" height="670.61"/><rect class="cls-4" x="-279.02" y="0" width="1672.83" height="222.09"/><rect class="cls-4" x="-279.02" y="892.69" width="1672.83" height="222.09"/><polygon class="cls-7" points="557.39 334.07 583.73 415.11 668.94 415.11 600 465.2 626.33 546.25 557.39 496.16 488.45 546.25 514.78 465.2 445.84 415.11 531.06 415.11 557.39 334.07"/><path class="cls-7" d="m974.67,397.97c-16.84,215.68-197.22,385.46-417.26,385.46s-400.41-169.78-417.26-385.46c72.08,158.48,231.82,268.6,417.26,268.6s345.18-110.12,417.26-268.6Z"/></g><circle class="cls-3" cx="557.39" cy="557.39" r="557.39"/></g></g></g></g></g></svg>