<?xml version="1.0" encoding="UTF-8"?><svg xmlns="http://www.w3.org/2000/svg" xmlns:xlink="http://www.w3.org/1999/xlink" viewBox="0 0 1114.78 1114.78"><defs><style>.cls-1{fill:#fff;}.cls-2{isolation:isolate;}.cls-3{fill:url(#radial-gradient);mix-blend-mode:multiply;opacity:.3;}.cls-4{fill:#ffee0b;}.cls-5{clip-path:url(#clippath);}.cls-6{fill:#df1b3f;}.cls-7{fill:none;}.cls-8{fill:#0b0b0b;}.cls-9{fill:#0b7d74;}</style><clipPath id="clippath"><circle class="cls-7" cx="557.39" cy="557.39" r="557.39"/></clipPath><radialGradient id="radial-gradient" cx="557.39" cy="557.39" fx="557.39" fy="557.39" r="557.39" gradientUnits="userSpaceOnUse"><stop offset="0" stop-color="#fff"/><stop offset=".36" stop-color="#fdfdfd"/><stop offset=".48" stop-color="#f6f6f6"/><stop offset=".58" stop-color="#eaeaea"/><stop offset=".65" stop-color="#d9d9d9"/><stop offset=".71" stop-color="#c3c3c3"/><stop offset=".77" stop-color="#a8a8a8"/><stop offset=".82" stop-color="#878787"/><stop offset=".87" stop-color="#626262"/><stop offset=".91" stop-color="#373737"/><stop offset=".95" stop-color="#090909"/><stop offset=".96" stop-color="#000"/></radialGradient></defs><g class="cls-2"><g id="Layer_2"><g id="Layer_1-2"><g id="Mozambique"><g class="cls-5"><g><rect class="cls-9" y="0" width="1672.15" height="348.58"/><rect class="cls-1" y="348.58" width="1672.15" height="34.51"/><rect class="cls-8" y="383.1" width="1672.15" height="348.58"/><rect class="cls-4" y="766.2" width="1672.15" height="348.58"/><rect class="cls-1" y="731.68" width="1672.15" height="34.51"/><polygon class="cls-6" points="0 0 730.3 557.17 0 1114.78 0 0"/><polygon class="cls-4" points="242.3 344.57 295.07 506.98 465.84 506.98 327.68 607.35 380.45 769.77 242.3 669.39 104.14 769.77 156.91 607.35 18.76 506.98 189.53 506.98 242.3 344.57"/><g><path class="cls-1" d="m352.03,658.43c-84.61-6.37-137.34-5.24-219.58.12-5.41.35-10.02-3.93-10.02-9.36v-97.42c0-4.73,3.56-8.73,8.25-9.32,85.8-10.71,137.4-10.34,223.19.03,4.71.57,8.28,4.58,8.28,9.32v97.27c0,5.47-4.68,9.76-10.13,9.35Z"/><path class="cls-8" d="m131.85,660.32c-2.83,0-5.58-1.08-7.65-3.02-2.27-2.12-3.52-5-3.52-8.11v-97.42c0-5.61,4.2-10.36,9.78-11.06,84.19-10.51,136.43-10.51,223.63.03,5.6.68,9.83,5.43,9.83,11.06v97.27c0,3.08-1.3,6.04-3.56,8.14-2.28,2.11-5.43,3.18-8.45,2.96-85.82-6.46-139.1-5.12-219.33.12-.24.01-.48.02-.72.02Zm109.21-123.98c-34.33,0-68.27,2.61-110.16,7.85-3.83.48-6.71,3.74-6.71,7.58v97.42c0,2.12.86,4.1,2.41,5.55,1.56,1.47,3.68,2.2,5.74,2.06,80.4-5.25,133.8-6.61,219.83-.12h0c2.16.2,4.22-.55,5.81-2.03,1.57-1.46,2.44-3.44,2.44-5.57v-97.27c0-3.86-2.9-7.12-6.75-7.59-43.47-5.25-78.23-7.88-112.6-7.88Z"/></g><rect class="cls-8" x="18.12" y="521.02" width="458.95" height="35.04" transform="translate(-284.13 276.63) rotate(-39.09)"/><rect class="cls-8" x="258.45" y="379.9" width="35.04" height="371.51" transform="translate(-332.36 404.23) rotate(-49.13)"/><rect class="cls-8" x="240.88" y="534.57" width="3.5" height="119.52"/></g><circle class="cls-3" cx="557.39" cy="557.39" r="557.39"/></g></g></g></g></g></svg>