<?xml version="1.0" encoding="UTF-8"?><svg xmlns="http://www.w3.org/2000/svg" xmlns:xlink="http://www.w3.org/1999/xlink" viewBox="0 0 1114.78 1114.78"><defs><style>.cls-1{fill:#ffd30d;}.cls-2{fill:#fff;}.cls-3{isolation:isolate;}.cls-4{fill:#d71c3f;}.cls-5{fill:#0d9c4d;}.cls-6{fill:url(#radial-gradient);mix-blend-mode:multiply;opacity:.3;}.cls-7{fill:#d5282b;}.cls-8{clip-path:url(#clippath);}.cls-9{fill:none;}.cls-10{fill:#0d4088;}</style><clipPath id="clippath"><circle class="cls-9" cx="557.39" cy="557.39" r="557.39"/></clipPath><radialGradient id="radial-gradient" cx="557.39" cy="557.39" fx="557.39" fy="557.39" r="557.39" gradientUnits="userSpaceOnUse"><stop offset="0" stop-color="#fff"/><stop offset=".36" stop-color="#fdfdfd"/><stop offset=".48" stop-color="#f6f6f6"/><stop offset=".58" stop-color="#eaeaea"/><stop offset=".65" stop-color="#d9d9d9"/><stop offset=".71" stop-color="#c3c3c3"/><stop offset=".77" stop-color="#a8a8a8"/><stop offset=".82" stop-color="#878787"/><stop offset=".87" stop-color="#626262"/><stop offset=".91" stop-color="#373737"/><stop offset=".95" stop-color="#090909"/><stop offset=".96" stop-color="#000"/></radialGradient></defs><g class="cls-3"><g id="Layer_2"><g id="Layer_1-2"><g id="Namibia"><g class="cls-8"><g><polygon class="cls-10" points="1331.1 0 0 887.1 0 0 1331.1 0"/><polygon class="cls-5" points="1672.84 227.76 1672.84 1114.78 341.74 1114.78 1672.84 227.76"/><polygon class="cls-7" points="1672.84 0 1672.84 168.66 253.16 1114.78 0 1114.78 0 946.12 1419.75 0 1672.84 0"/><polygon class="cls-2" points="1419.75 0 0 946.12 0 887.1 1331.1 0 1419.75 0"/><polygon class="cls-2" points="1672.84 168.66 1672.84 227.76 341.74 1114.78 253.16 1114.78 1672.84 168.66"/><polygon class="cls-4" points="1672.84 0 1672.84 168.66 253.16 1114.78 0 1114.78 0 946.12 1419.75 0 1672.84 0"/><polygon class="cls-4" points="1672.84 0 1672.84 168.66 253.16 1114.78 0 1114.78 0 946.12 1419.75 0 1672.84 0"/><g><path class="cls-1" d="m428,142.34l-63.59,53.13c18.95,5.19,35.86,15.16,49.41,28.57l14.18-81.7Z"/><path class="cls-1" d="m254.99,224.81l-81.7-14.18,53.13,63.66c5.12-18.95,15.16-35.94,28.57-49.48Z"/><path class="cls-1" d="m363.29,195.19l-28.5-77.84-28.57,77.84c9.12-2.39,18.67-3.65,28.57-3.65s19.37,1.26,28.5,3.65Z"/><path class="cls-1" d="m305.17,195.47l-63.66-53.13,14.25,81.7c13.55-13.41,30.46-23.37,49.41-28.57Z"/><path class="cls-1" d="m443.09,274.29l53.13-63.66-81.63,14.18c13.34,13.55,23.37,30.53,28.5,49.48Z"/><path class="cls-1" d="m521.21,303.84l-77.84-28.57c2.39,9.12,3.65,18.67,3.65,28.57s-1.26,19.44-3.65,28.57l77.84-28.57Z"/><path class="cls-1" d="m306.23,412.49l28.57,77.84,28.5-77.84c-9.12,2.39-18.67,3.65-28.5,3.65s-19.44-1.26-28.57-3.65Z"/><path class="cls-1" d="m414.52,382.87l81.7,14.18-53.13-63.66c-5.12,18.95-15.16,35.94-28.57,49.48Z"/><path class="cls-1" d="m364.41,412.21l63.59,53.13-14.18-81.77c-13.55,13.48-30.46,23.44-49.41,28.64Z"/><path class="cls-1" d="m222.49,303.84c0-9.9,1.26-19.44,3.65-28.57l-77.84,28.57,77.84,28.57c-2.39-9.12-3.65-18.67-3.65-28.57Z"/><path class="cls-1" d="m226.42,333.39l-53.13,63.66,81.7-14.18c-13.41-13.55-23.44-30.53-28.57-49.48Z"/><path class="cls-1" d="m241.51,465.34l63.66-53.13c-18.95-5.19-35.87-15.16-49.41-28.57l-14.25,81.7Z"/><circle class="cls-1" cx="334.79" cy="303.84" r="93.21" transform="translate(-44.35 57.55) rotate(-9.22)"/></g></g><circle class="cls-6" cx="557.39" cy="557.39" r="557.39"/></g></g></g></g></g></svg>