<?xml version="1.0" encoding="UTF-8"?><svg xmlns="http://www.w3.org/2000/svg" xmlns:xlink="http://www.w3.org/1999/xlink" viewBox="0 0 1114.78 1114.78"><defs><style>.cls-1{fill:#2c6948;}.cls-2{isolation:isolate;}.cls-3{fill:url(#radial-gradient);mix-blend-mode:multiply;opacity:.3;}.cls-4{fill:#fdd70e;}.cls-5{clip-path:url(#clippath);}.cls-6{fill:none;}.cls-7{fill:#0daae4;}</style><clipPath id="clippath"><circle class="cls-6" cx="557.39" cy="557.39" r="557.39"/></clipPath><radialGradient id="radial-gradient" cx="557.39" cy="557.39" fx="557.39" fy="557.39" r="557.39" gradientUnits="userSpaceOnUse"><stop offset="0" stop-color="#fff"/><stop offset=".36" stop-color="#fdfdfd"/><stop offset=".48" stop-color="#f6f6f6"/><stop offset=".58" stop-color="#eaeaea"/><stop offset=".65" stop-color="#d9d9d9"/><stop offset=".71" stop-color="#c3c3c3"/><stop offset=".77" stop-color="#a8a8a8"/><stop offset=".82" stop-color="#878787"/><stop offset=".87" stop-color="#626262"/><stop offset=".91" stop-color="#373737"/><stop offset=".95" stop-color="#090909"/><stop offset=".96" stop-color="#000"/></radialGradient></defs><g class="cls-2"><g id="Layer_2"><g id="Layer_1-2"><g id="Rwanda"><g class="cls-5"><g><rect class="cls-7" x="-557.48" width="1672.27" height="557.2"/><rect class="cls-4" x="-557.48" y="557.2" width="1672.27" height="278.79"/><rect class="cls-1" x="-557.48" y="835.99" width="1672.27" height="278.79"/><path class="cls-4" d="m864.42,291.21c0,27.32-22.15,49.47-49.47,49.47s-49.47-22.15-49.47-49.47,22.15-49.47,49.47-49.47,49.47,22.15,49.47,49.47Zm122.95,46.2l-119.16-24.14,101.33,67.19-108.86-54.16,80.49,91.13-91.13-80.49,54.16,108.86-67.19-101.33,24.14,119.16-38.68-115.27-7.52,121.35-7.52-121.35-38.68,115.27,24.14-119.16-67.19,101.33,54.16-108.86-91.13,80.49,80.49-91.13-108.86,54.16,101.33-67.19-119.17,24.14,115.27-38.68-121.35-7.52,121.35-7.52-115.27-38.68,119.17,24.14-101.33-67.19,108.86,54.16-80.49-91.13,91.13,80.49-54.16-108.86,67.19,101.33-24.14-119.17,38.68,115.27,7.52-121.35,7.52,121.35,38.68-115.27-24.14,119.17,67.19-101.33-54.16,108.86,91.13-80.49-80.49,91.13,108.86-54.16-101.33,67.19,119.16-24.14-115.27,38.68,121.35,7.52-121.35,7.52,115.27,38.68Zm-116.11-46.2c0-31.1-25.21-56.31-56.31-56.31s-56.31,25.21-56.31,56.31,25.21,56.31,56.31,56.31,56.31-25.21,56.31-56.31Z"/></g><circle class="cls-3" cx="557.39" cy="557.39" r="557.39"/></g></g></g></g></g></svg>