<?xml version="1.0" encoding="UTF-8"?><svg xmlns="http://www.w3.org/2000/svg" xmlns:xlink="http://www.w3.org/1999/xlink" viewBox="0 0 1114.78 1114.78"><defs><style>.cls-1{fill:#fff;}.cls-2{isolation:isolate;}.cls-3{fill:url(#radial-gradient);mix-blend-mode:multiply;opacity:.3;}.cls-4{clip-path:url(#clippath);}.cls-5{fill:none;}.cls-6{fill:#007a3d;}.cls-7{fill:#c4111b;}</style><clipPath id="clippath"><circle class="cls-5" cx="557.39" cy="557.39" r="557.39"/></clipPath><radialGradient id="radial-gradient" cx="557.39" cy="557.39" fx="557.39" fy="557.39" r="557.39" gradientUnits="userSpaceOnUse"><stop offset="0" stop-color="#fff"/><stop offset=".36" stop-color="#fdfdfd"/><stop offset=".48" stop-color="#f6f6f6"/><stop offset=".58" stop-color="#eaeaea"/><stop offset=".65" stop-color="#d9d9d9"/><stop offset=".71" stop-color="#c3c3c3"/><stop offset=".77" stop-color="#a8a8a8"/><stop offset=".82" stop-color="#878787"/><stop offset=".87" stop-color="#626262"/><stop offset=".91" stop-color="#373737"/><stop offset=".95" stop-color="#090909"/><stop offset=".96" stop-color="#000"/></radialGradient></defs><g class="cls-2"><g id="Layer_2"><g id="Layer_1-2"><g id="Sahrawi_Arab_Democratic_Republic"><g class="cls-4"><g><rect x="-249.18" width="2230.79" height="371.39"/><rect class="cls-1" x="-249.18" y="372" width="2230.79" height="371.39"/><rect class="cls-6" x="-249.18" y="743.39" width="2230.79" height="371.39"/><polygon class="cls-7" points="-249.18 0 493.6 557.7 -249.18 1114.78 -249.18 0"/><polygon class="cls-7" points="890.04 453.7 914.09 527.74 991.94 527.74 928.96 573.5 953.02 647.54 890.04 601.78 827.05 647.54 851.11 573.5 788.13 527.74 865.98 527.74 890.04 453.7"/><path class="cls-7" d="m896.51,704.02c-9.62,1.88-19.61,2.93-29.83,2.93-82.57,0-149.51-66.94-149.51-149.58s66.94-149.51,149.51-149.51c10.22,0,20.21,1.05,29.83,2.93-70.25,11.87-123.74,72.95-123.74,146.58s53.49,134.78,123.74,146.66Z"/></g><circle class="cls-3" cx="557.39" cy="557.39" r="557.39"/></g></g></g></g></g></svg>