<?xml version="1.0" encoding="UTF-8"?><svg xmlns="http://www.w3.org/2000/svg" xmlns:xlink="http://www.w3.org/1999/xlink" viewBox="0 0 1114.78 1114.78"><defs><style>.cls-1{fill:#fff;}.cls-2{isolation:isolate;}.cls-3{fill:#0b1f95;}.cls-4{fill:url(#radial-gradient);mix-blend-mode:multiply;opacity:.3;}.cls-5{fill:#0b8355;}.cls-6{clip-path:url(#clippath);}.cls-7{fill:#ffc527;}.cls-8{fill:none;}.cls-9{fill:#0b0b0b;}.cls-10{fill:#ed473c;}</style><clipPath id="clippath"><circle class="cls-8" cx="557.39" cy="557.39" r="557.39"/></clipPath><radialGradient id="radial-gradient" cx="557.39" cy="557.39" fx="557.39" fy="557.39" r="557.39" gradientUnits="userSpaceOnUse"><stop offset="0" stop-color="#fff"/><stop offset=".36" stop-color="#fdfdfd"/><stop offset=".48" stop-color="#f6f6f6"/><stop offset=".58" stop-color="#eaeaea"/><stop offset=".65" stop-color="#d9d9d9"/><stop offset=".71" stop-color="#c3c3c3"/><stop offset=".77" stop-color="#a8a8a8"/><stop offset=".82" stop-color="#878787"/><stop offset=".87" stop-color="#626262"/><stop offset=".91" stop-color="#373737"/><stop offset=".95" stop-color="#090909"/><stop offset=".96" stop-color="#000"/></radialGradient></defs><g class="cls-2"><g id="Layer_2"><g id="Layer_1-2"><g id="South_Africa"><g class="cls-6"><g><rect class="cls-1" y="0" width="1672.84" height="1114.78"/><g><polygon class="cls-10" points="1672.84 0 1672.84 368.35 893.03 368.35 340.65 0 1672.84 0"/><polygon class="cls-3" points="1672.84 746.37 1672.84 1114.78 340.58 1114.78 893.03 746.37 1672.84 746.37"/><polygon class="cls-9" points="495.94 557.36 0 887.77 0 227.01 495.94 557.36"/><polygon class="cls-7" points="635.04 557.36 0 980.46 0 887.77 495.94 557.36 0 227.01 0 134.33 635.04 557.36"/><polygon class="cls-5" points="1672.84 445.46 1672.84 669.25 869.69 669.25 201.63 1114.78 0 1114.78 0 980.46 635.04 557.36 0 134.33 0 0 201.63 0 869.69 445.46 1672.84 445.46"/></g></g><circle class="cls-4" cx="557.39" cy="557.39" r="557.39"/></g></g></g></g></g></svg>