<?xml version="1.0" encoding="UTF-8"?><svg xmlns="http://www.w3.org/2000/svg" xmlns:xlink="http://www.w3.org/1999/xlink" viewBox="0 0 1114.78 1114.78"><defs><style>.cls-1{isolation:isolate;}.cls-2{fill:#ef3340;}.cls-3{fill:url(#radial-gradient);mix-blend-mode:multiply;opacity:.3;}.cls-4{fill:#009739;}.cls-5{fill:#ffd100;}.cls-6{clip-path:url(#clippath);}.cls-7{fill:none;}</style><clipPath id="clippath"><circle class="cls-7" cx="557.39" cy="557.39" r="557.39"/></clipPath><radialGradient id="radial-gradient" cx="557.39" cy="557.39" fx="557.39" fy="557.39" r="557.39" gradientUnits="userSpaceOnUse"><stop offset="0" stop-color="#fff"/><stop offset=".36" stop-color="#fdfdfd"/><stop offset=".48" stop-color="#f6f6f6"/><stop offset=".58" stop-color="#eaeaea"/><stop offset=".65" stop-color="#d9d9d9"/><stop offset=".71" stop-color="#c3c3c3"/><stop offset=".77" stop-color="#a8a8a8"/><stop offset=".82" stop-color="#878787"/><stop offset=".87" stop-color="#626262"/><stop offset=".91" stop-color="#373737"/><stop offset=".95" stop-color="#090909"/><stop offset=".96" stop-color="#000"/></radialGradient></defs><g class="cls-1"><g id="Layer_2"><g id="Layer_1-2"><g id="São_Tomé_and_Príncipe"><g class="cls-6"><g><rect class="cls-4" x="-359.47" width="2229.57" height="321.7"/><rect class="cls-4" x="-359.47" y="793.08" width="2229.57" height="321.7"/><rect class="cls-5" x="-359.47" y="321.7" width="2229.57" height="471.38"/><polygon class="cls-2" points="-359.47 0 197.97 557.39 -359.47 1114.78 -359.47 0"/><polygon points="448.45 385.56 491.07 516.73 628.99 516.73 517.41 597.79 560.03 728.96 448.45 647.89 336.87 728.96 379.49 597.79 267.91 516.73 405.83 516.73 448.45 385.56"/><polygon points="1005.24 385.56 1047.86 516.73 1185.78 516.73 1074.2 597.79 1116.82 728.96 1005.24 647.89 893.66 728.96 936.28 597.79 824.7 516.73 962.62 516.73 1005.24 385.56"/></g><circle class="cls-3" cx="557.39" cy="557.39" r="557.39"/></g></g></g></g></g></svg>