<?xml version="1.0" encoding="UTF-8"?><svg xmlns="http://www.w3.org/2000/svg" xmlns:xlink="http://www.w3.org/1999/xlink" viewBox="0 0 1114.78 1114.78"><defs><style>.cls-1{fill:#eb0d1f;}.cls-2{fill:#fff;}.cls-3{isolation:isolate;}.cls-4{fill:url(#radial-gradient);mix-blend-mode:multiply;opacity:.3;}.cls-5{clip-path:url(#clippath);}.cls-6{fill:none;}</style><clipPath id="clippath"><circle class="cls-6" cx="557.39" cy="557.39" r="557.39"/></clipPath><radialGradient id="radial-gradient" cx="557.39" cy="557.39" fx="557.39" fy="557.39" r="557.39" gradientUnits="userSpaceOnUse"><stop offset="0" stop-color="#fff"/><stop offset=".36" stop-color="#fdfdfd"/><stop offset=".48" stop-color="#f6f6f6"/><stop offset=".58" stop-color="#eaeaea"/><stop offset=".65" stop-color="#d9d9d9"/><stop offset=".71" stop-color="#c3c3c3"/><stop offset=".77" stop-color="#a8a8a8"/><stop offset=".82" stop-color="#878787"/><stop offset=".87" stop-color="#626262"/><stop offset=".91" stop-color="#373737"/><stop offset=".95" stop-color="#090909"/><stop offset=".96" stop-color="#000"/></radialGradient></defs><g class="cls-3"><g id="Layer_2"><g id="Layer_1-2"><g id="Tunisia"><g class="cls-5"><g><rect class="cls-1" x="-279.02" y="0" width="1672.83" height="1114.78"/><circle class="cls-2" cx="557.39" cy="557.39" r="279.18"/><path class="cls-1" d="m722.19,685.15c-38.11,49.13-97.77,80.78-164.8,80.78-115.18,0-208.52-93.35-208.52-208.52s93.35-208.59,208.52-208.59c66.96,0,126.55,31.58,164.59,80.64-28.92-24.28-66.26-38.88-106.89-38.88-92.15,0-166.83,74.68-166.83,166.83s74.68,166.76,166.83,166.76c40.78,0,78.12-14.67,107.1-39.02Z"/><polygon class="cls-1" points="574.57 438.36 628.15 512.07 714.8 483.89 661.26 557.62 714.83 631.33 628.16 603.19 574.62 676.92 574.6 585.8 487.93 557.65 574.59 529.48 574.57 438.36"/></g><circle class="cls-4" cx="557.39" cy="557.39" r="557.39"/></g></g></g></g></g></svg>