<?xml version="1.0" encoding="UTF-8"?><svg xmlns="http://www.w3.org/2000/svg" xmlns:xlink="http://www.w3.org/1999/xlink" viewBox="0 0 1114.78 1114.78"><defs><style>.cls-1{fill:#f08714;}.cls-2{isolation:isolate;}.cls-3{fill:url(#radial-gradient);mix-blend-mode:multiply;opacity:.3;}.cls-4{fill:#2b9314;}.cls-5{clip-path:url(#clippath);}.cls-6{fill:none;}.cls-7{fill:#141414;}.cls-8{fill:#e03223;}</style><clipPath id="clippath"><circle class="cls-6" cx="557.39" cy="557.39" r="557.39"/></clipPath><radialGradient id="radial-gradient" cx="557.39" cy="557.39" fx="557.39" fy="557.39" r="557.39" gradientUnits="userSpaceOnUse"><stop offset="0" stop-color="#fff"/><stop offset=".36" stop-color="#fdfdfd"/><stop offset=".48" stop-color="#f6f6f6"/><stop offset=".58" stop-color="#eaeaea"/><stop offset=".65" stop-color="#d9d9d9"/><stop offset=".71" stop-color="#c3c3c3"/><stop offset=".77" stop-color="#a8a8a8"/><stop offset=".82" stop-color="#878787"/><stop offset=".87" stop-color="#626262"/><stop offset=".91" stop-color="#373737"/><stop offset=".95" stop-color="#090909"/><stop offset=".96" stop-color="#000"/></radialGradient></defs><g class="cls-2"><g id="Layer_2"><g id="Layer_1-2"><g id="Zambia"><g class="cls-5"><g><rect class="cls-4" x="-557.39" width="1672.17" height="1114.78"/><rect class="cls-8" x="517.58" y="398.14" width="199.07" height="716.65"/><rect class="cls-7" x="716.65" y="398.14" width="199.07" height="716.65"/><rect class="cls-1" x="915.71" y="398.14" width="199.07" height="716.65"/><path class="cls-1" d="m1058.29,141.31c19.8-13.96,21.66-24.83,21.66-25,0-.43-.21-.81-.57-1.02-1.11-.63-3,.37-11.8,5.26-5.09,2.83-12.08,6.71-20.84,11.17,20.64-14.46,20.87-25.13,20.85-25.92-.04-2.03-.95-2.44-1.42-2.53-3.73-.46-11.97,4.17-24.42,11.14-5.51,3.08-11.77,6.59-18.64,10.21,13.4-9.41,20.51-18.02,21.53-21.2.33-1.02.25-1.82-.24-2.36-.32-.36-.88-.4-1.25-.09-5.02,4.2-50.53,22.5-70.59,30.45,4.24-3.81,7.2-8.44,6.66-10.93-.15-.71-.85-2.35-3.75-2-.15.01-.29.07-.42.15-10.84,7.51-51.66,15.8-65.21,18.14-1.44.44-3.42,1.07-5.75,1.8-10.03,3.18-28.66,9.07-32.55,8.67-38.57-2.64-52.76,1.7-56.15,3.06-3.03-6.09-3.66-10.94-1.86-14.42,2-3.87,6.34-4.74,7.59-4.91,1.3-.13,2.31-.16,3.16-.18,1.85-.05,3.19-.09,5.35-1.06.21-.09.36-.25.45-.45.59.31,1.07.7,1.38,1.19.55.86.59,2.08.12,3.71-.09.32,0,.68.25.91.25.23.61.31.92.19,2.77-.97,7.44-4.83,6.92-9.08-.58-4.74-7.01-7.74-19.11-8.93-5.33-5.3-18.28-8.91-30.31-5.58-9.72,2.69-22.36,10.63-27.42,33.24-.02.11-.03.22,0,.33-12.45-3.92-34.13-6.99-46.52-8.75-1.77-.25-3.35-.47-4.55-.65-17.39-4.61-35.12-12.81-48.07-18.8-12.48-5.78-17.75-8.14-19.64-6.94-.49.24-.82.65-.92,1.18-.47,2.37,3.86,7.14,13.13,16.28.73.72,1.49,1.48,2.2,2.19-17.9-9.32-34.49-16.24-51.33-23.09-6.83-2.34-12.92-5.91-17.36-8.52-5.35-3.14-8.11-4.68-9.25-2.58-.95,1.75-.37,6.05,2.58,10.59,4.91,7.53,11.77,14.9,18.82,20.26-14.8-6.48-19.05-8.84-21.6-10.27l-.32-.18c-2.75-1.52-6.11-4.66-9.07-7.43-4.9-4.58-7.8-7.16-9.89-6.55-.14.04-.26.11-.36.2-.93.84-.72,3.2-.4,5.04,1.16,6.42,5.32,14.69,13.29,21.47-2.88-1.88-5.69-3.98-8.2-5.85-6.04-4.5-8.79-6.46-10.39-5.45-.43.25-.92.8-.84,2,.25,3.77,6.17,13.07,14.01,18.25-.36-.13-.7-.27-1.05-.4-3.47-1.67-6.47-3.99-8.67-5.69-2.64-2.04-3.96-3.08-5.12-2.5-.59.29-.89.92-.89,1.87,0,5.9,10.2,23.08,55.69,33.97-3.49.32-7.75.89-8.11,1.79-.28.7-.05,1.65.62,2.59,1.66,2.33,8.08,7.56,32.19,6.39-3.36.95-5.88,1.62-6.4,1.66l-1.05.12c-10.27,1.15-10.99,1.7-11.32,2.56-.14.43-.04.91.3,1.41,1.42,2.09,9,6.68,23.37,7.5,5.51.32,12.84-.85,19.78-2.29-5.07,1.67-6.18,2.07-6.34,2.2-.41.15-2.65.39-4.29.56-5.42.55-6.21.73-6.57,1.45-.19.4-.24,1.07.58,2.02.12.13,11.09,12.18,49.49,1.72-4.18,1.87-9.87,3.42-13.81,4.49-5.08,1.39-5.87,1.6-5.84,2.49-.2,1.69,5.63,5.77,12.2,7.11,3.35.66,8.11.65,13.06-.08,1.66-.3,3.42-.68,5.28-1.2-3.82,2.23-4.61,2.94-4.71,3.69-.04.3.12.73.36.93,4.5,3.81,15.5,2.11,22.39.47-4.93,2.78-4.78,3.06-4.34,3.9,3.6,5.24,20.82.05,21.6-.37.18-.09,1.35-.68,3.06-1.53-2.67,1.95-4.42,3.58-4.55,4.6-.04.27,0,.52.11.75-.03,1.07.43,1.94,1.33,2.52,3.82,2.48,16.51-.85,26.85-4.3-3.26,2.14-5.8,4.41-5.83,6.25,0,.18.05.36.14.5,2.21,3.42,6.07,5.7,11.46,6.77,7.48,1.49,15.96.18,19.47-1.24-.16.7-.41,1.58-.58,2.21-.73,2.61-.98,3.49-.24,4,.25.18.73.18,1.02.06.41-.16,1.62-1.4,2.93-2.99-.74,1.95-1.52,4.11-2.12,6.42-.59,2.26-1,4.61-1.42,7.09-.55,3.21-1.13,6.53-2.19,10.09-.09.55.11,1.04.52,1.32.61.41,1.55.26,2.76-.47,1.75-1.05,4.11-3.26,6.06-6.67-.02.09-.03.18-.05.26-1.59,9.14-1.8,11.16-.43,11.7.7.25,1.41.24,2.18-.07-1.14,4.18-3.71,9.8-12.81,9.8h-.15c-11.61,0-13.83,9.88-14.14,11.73-.49.69-1.03,2.43-.43,6.76.05.38.34.68.71.76.36.07.75-.09.95-.41,1.51-2.47,2.51-3.78,2.97-4.35,1.84.33,6.33,1,12.99-2.39-1.3,2.01-1.87,3.85-1.69,5.5.17,1.49.93,2.45,1.46,2.96-.23,1.11-.51,3.53.72,5.61.97,1.63,2.62,2.7,4.91,3.16.36.06.75-.09.95-.41.2-.32.18-.73-.05-1.03-1.3-1.69-1.12-3.18-.94-3.86,1.67-.32,6.53-1.69,8.5-6.73,1.47,4.4,4.12,6.32,5.23,6.96.21,1.56,1.32,5.8,7.09,6.22.02,0,.04,0,.07,0,.37,0,.7-.22.84-.57.14-.36.04-.79-.27-1.03-2.44-1.99-2.45-4.86-2.37-5.85.92-.72,3.37-2.91,3.97-6.41.04-.22.07-.44.09-.66.7,1.22,1.83,2.34,3.64,3.7.32.24.74.25,1.06.02.32-.22.46-.63.35-1-.64-2.15-.78-3.92-.78-4.99,1.64.39,4.65.5,7.9-2.33-.76,3.19-.37,5.22.22,6.46.33.7.78,1.25,1.26,1.55.06.31.07.86.08,1.3.05,2.51.15,7.16,6.54,7.16.39,0,.86-.18,1.01-.59.13-.35.03-.74-.25-.99-1.87-1.65-1.6-3.89-1.38-4.83.91-.27,2.67-1.03,4.05-2.99,1.9-2.71,2.36-6.67,1.37-11.75.62-.49,1.13-.75,1.56-.64.32.06.53.33.61.47.13.83.78,4.2,3.31,5.98,1.44,1.02,3.19,1.34,5.23.93.37.26.47.54.51.75.24,1.19-1.07,3.05-1.54,3.61-.22.26-.28.64-.14.95.14.32.46.53.8.54.28,0,5.69.07,7.41-4.4,1.59-4.11,1.77-7.4.55-10.06-1-2.15-2.9-3.77-5.67-4.82-.03-.29.06-.43.11-.5.38-.57,1.63-.85,2.31-.91,1.5.47,5.1,1.91,6.16,3.59.58.95,1.21.9,1.55.8.63-.21.9-.86.8-1.92-.23-2.56-2.34-6.86-7.12-7.54-6.76-.18-7.63-1.25-7.69-1.16,0-.11-.08-1.16-.2-2.8l-.13-1.8c5.73,3.5,11.61,4.41,12.6,4.18.25-.05.54-.24.67-.46.07-.12.11-.25.12-.39.05-.65-.41-1.38-3.04-5.23-2.86-4.19-8.17-11.97-7.77-14.37,1.02.4,2.32,1.37,3.68,2.4,3.06,2.3,6.88,5.15,10.34,3.28.42-.23.59-.74.39-1.18-.7-1.5-1.95-2.08-3.27-2.69-1.95-.9-4.37-2.02-7.09-6.47-.21-.39-.42-.79-.61-1.19,3.84,3.17,10.7,7.9,17.54,7.44.18,0,.35-.07.49-.18.88-.67,1.08-1.47,1.08-2.02,0-.48-.12-.96-.36-1.45,6.81,4.18,15.79,8.02,22.63,4.96.14-.06.26-.16.35-.28.88-1.15,1.2-2.13,1.01-3.1-.35-1.76-2.32-2.91-5.31-4.65-3.02-1.76-7.21-4.2-11.79-8.43,9.73,5.36,27.98,14.03,37.45,9.81.1-.04.18-.11.26-.18.58-.56.86-1.27.79-2.05-.21-2.55-3.88-5.52-10.42-10.12.94.35,1.8.61,2.56.79,5.52,1.3,16.11-.87,18.89-3.86.18-.19.26-.44.24-.7-.09-.9-.91-1.55-2.84-2.23,8.28-.14,14.25-1.85,15.35-3.55.14-.22.18-.48.11-.73-.39-1.42-1.19-2.13-5.57-3.41,21.13-.44,36.47-10.54,37.99-11.58,2.63-.86,2.44-1.83,2.37-2.15-.03-.16-.07-.34-.2-.5,63.14-9.15,80.63-35.52,81.07-40.97.06-.79-.4-1.17-.89-1.26-1.05-.14-2.58.41-4.79,1.48,10.3-7.73,16.88-14.95,19.47-18.97.67-1.03,1.08-1.88.9-2.53-.02-.47-.24-.88-.61-1.15-1.44-1.03-5.78.32-14.69,4.16Zm-239.36,130.09c-1.19-.48-4.81-2-6.96-3.43-.62-1.69-.44-7.89-.12-12.69,2.03,2.5,3.85,4.09,5.52,4.83.3.13.63.1.89-.09.26-.18.4-.49.38-.81-.11-1.44-.17-2.5-.21-3.37-.13-2.63-.18-3.64-1.55-7.83.95-6.87,1.17-15.93,1.39-26.4,10.42,18.44,13.8,26.2,10.95,39.99-.09.43.14.86.55,1.02,1.58.62,3.02-.54,4.1-1.8l.43,7.06c-.25.38-.76,1.12-1.23,1.66-.36.04-1.17.02-1.89.02-3.24-.03-8.61-.08-12.24,1.85Zm-5.62,9.82c.34-.22.68-.48,1.04-.76.04.38.1.74.17,1.07,0,.65,0,1.24.01,1.8-.33-.7-.74-1.4-1.22-2.11Z"/></g><circle class="cls-3" cx="557.39" cy="557.39" r="557.39"/></g></g></g></g></g></svg>