<?xml version="1.0" encoding="UTF-8"?><svg xmlns="http://www.w3.org/2000/svg" xmlns:xlink="http://www.w3.org/1999/xlink" viewBox="0 0 1114.78 1114.78"><defs><style>.cls-1{fill:#006400;}.cls-2{fill:#fff;}.cls-3{isolation:isolate;}.cls-4{fill:url(#radial-gradient);mix-blend-mode:multiply;opacity:.3;}.cls-5{clip-path:url(#clippath);}.cls-6{fill:none;}.cls-7{fill:#141414;}.cls-8{fill:#d40000;}.cls-9{fill:#ffd200;}</style><clipPath id="clippath"><circle class="cls-6" cx="557.39" cy="557.39" r="557.39"/></clipPath><radialGradient id="radial-gradient" cx="557.39" cy="557.39" fx="557.39" fy="557.39" r="557.39" gradientUnits="userSpaceOnUse"><stop offset="0" stop-color="#fff"/><stop offset=".36" stop-color="#fdfdfd"/><stop offset=".48" stop-color="#f6f6f6"/><stop offset=".58" stop-color="#eaeaea"/><stop offset=".65" stop-color="#d9d9d9"/><stop offset=".71" stop-color="#c3c3c3"/><stop offset=".77" stop-color="#a8a8a8"/><stop offset=".82" stop-color="#878787"/><stop offset=".87" stop-color="#626262"/><stop offset=".91" stop-color="#373737"/><stop offset=".95" stop-color="#090909"/><stop offset=".96" stop-color="#000"/></radialGradient></defs><g class="cls-3"><g id="Layer_2"><g id="Layer_1-2"><g id="Zimbabwe"><g class="cls-5"><g><rect class="cls-1" width="2229.55" height="159.26"/><rect class="cls-9" y="159.26" width="2229.55" height="159.25"/><rect class="cls-8" y="318.51" width="2229.55" height="159.26"/><rect class="cls-7" y="477.78" width="2229.55" height="159.25"/><rect class="cls-8" y="637.02" width="2229.55" height="159.25"/><rect class="cls-9" y="796.27" width="2229.55" height="159.26"/><rect class="cls-1" y="955.53" width="2229.55" height="159.25"/><polygon class="cls-8" points="283.12 280.42 338.74 451.6 518.73 451.6 373.11 557.4 428.73 728.58 283.12 622.78 137.51 728.58 193.13 557.4 47.51 451.6 227.5 451.6 283.12 280.42"/><polygon points="789.63 558.22 684.42 637.02 471.79 796.27 259.13 955.53 46.5 1114.78 0 1114.78 0 0 46.39 0 258.44 159.26 470.47 318.51 682.52 477.78 789.63 558.22"/><polygon class="cls-2" points="0 0 743.19 558.19 0 1114.78 0 0"/><path class="cls-8" d="m283.12,280.43l145.61,448.15L47.51,451.61h471.21l-381.22,276.97,145.61-448.15Z"/><path class="cls-9" d="m407.58,545.1l-124.35-97.31-3.22-40.33c-.84-10.02-4.72-19.22-11.21-26.63-5.6-6.35-13.98-9.81-22.45-9.24-8.13.64-15.66,4.97-20.31,11.66-4.68-.04-8.94.29-13.01,1.01-4.72.79-8.91,3.75-11.2,7.94-2.27,4.24-2.55,9.21-.79,13.63.27.67.93,1.09,1.66,1.05l14.98-.85c5.48,3.28,9.02,9.28,9.26,15.77l1.67,61c-2.92,6.25-4.41,13.19-4.33,20.1.09,8.51.75,16.86,1.96,24.81,1.08,7.74-1.49,15.58-6.88,20.98-9.01,9.27-16.89,19.65-23.43,30.85-5.22,8.95-4.36,20.33,2.13,28.43l17.43,67.68c.19.74.86,1.26,1.63,1.26h132.09c.85,0,1.56-.63,1.67-1.47l7.52-59.46c2.76-22.06,16.7-43.45,36.46-55.98l4.54,1.31c3.53.93,7.28-.3,9.58-3.14,3.22-3.98,2.61-9.84-1.39-13.09Z"/></g><circle class="cls-4" cx="557.39" cy="557.39" r="557.39"/></g></g></g></g></g></svg>